<?xml version="1.0"?>
<svg xmlns="http://www.w3.org/2000/svg" id="90669fb2-e960-4a60-bc49-152266124145" data-name="Layer 1" viewBox="0 0 114.12 85.79">
  <title>ontrac-color</title>
  <polygon points="83.53 4.73 47.41 15.87 47.41 26.51 76.78 39.17 112.74 25.83 112.74 14.52 83.53 4.73" fill="#fff"/>
  <path d="M106.18,79.16c-1,0-1.6.51-1.6,1.3s.46.92,1.12,1.36c.42.28.65.5.65.87a.8.8,0,0,1-.86.79.6.6,0,0,1-.69-.66c0-.08,0-.16,0-.25H104a2.19,2.19,0,0,0,0,.41c0,.74.5,1.13,1.42,1.13,1.1,0,1.75-.59,1.75-1.5a1.49,1.49,0,0,0-.84-1.29c-.55-.38-1-.52-1-.95s.29-.61.76-.61.69.2.69.65v.13h.8a1.43,1.43,0,0,0,0-.18c0-.8-.49-1.2-1.45-1.2" fill="#001f5b"/>
  <path d="M101.76,79.16c-1,0-1.61.51-1.61,1.3s.46.92,1.13,1.36c.42.28.65.5.65.87a.8.8,0,0,1-.87.79.6.6,0,0,1-.68-.66,2.24,2.24,0,0,1,0-.25h-.78a2.2,2.2,0,0,0,0,.41c0,.74.5,1.13,1.43,1.13,1.1,0,1.75-.59,1.75-1.5a1.48,1.48,0,0,0-.84-1.29c-.54-.38-1-.52-1-.95s.29-.61.76-.61.7.2.7.65v.13h.8a1.61,1.61,0,0,0,0-.18c0-.8-.49-1.2-1.45-1.2" fill="#001f5b"/>
  <path d="M97.09,79.19a1.67,1.67,0,0,0-1.63.92A5.13,5.13,0,0,0,95,81.43a6.24,6.24,0,0,0-.17,1.22,1.4,1.4,0,0,0,1.57,1.48,1.75,1.75,0,0,0,1.9-1.63h-.85c-.16.65-.45,1-.92,1s-.88-.26-.88-.8a4.17,4.17,0,0,1,.1-.86h2.72a6.32,6.32,0,0,0,.15-1.09,1.38,1.38,0,0,0-1.56-1.53m.7,2H95.92c.21-1,.5-1.39,1.16-1.39s.77.3.77.89a4.06,4.06,0,0,1,0,.5" fill="#001f5b"/>
  <polygon points="92.7 77.26 91.82 77.26 90.38 84.01 93.57 84.01 93.73 83.25 91.43 83.25 92.7 77.26" fill="#001f5b"/>
  <path d="M85.69,80.09l.14-.79h-.78a9.56,9.56,0,0,1-.16,1L84.11,84h.8l.54-2.39C85.7,80.48,86,80,86.92,80h.15l.16-.73-.25,0a1.37,1.37,0,0,0-1.29.83" fill="#001f5b"/>
  <path d="M81.62,79.19a1.68,1.68,0,0,0-1.61.92,5,5,0,0,0-.41,1.28,6.57,6.57,0,0,0-.17,1.26A1.41,1.41,0,0,0,81,84.12a1.68,1.68,0,0,0,1.63-.9,5.43,5.43,0,0,0,.45-1.37,6,6,0,0,0,.15-1.18,1.4,1.4,0,0,0-1.59-1.48m.62,2.54a6.12,6.12,0,0,1-.35,1.18.91.91,0,0,1-.87.54.71.71,0,0,1-.79-.78,5,5,0,0,1,.15-1.13,5.31,5.31,0,0,1,.35-1.14.92.92,0,0,1,.87-.55c.52,0,.79.3.79.87a5,5,0,0,1-.15,1" fill="#001f5b"/>
  <polygon points="74.55 84.01 75.44 84.01 76.1 80.91 78.25 80.91 78.41 80.14 76.26 80.14 76.72 78.02 78.97 78.02 79.15 77.26 75.98 77.26 74.55 84.01" fill="#001f5b"/>
  <path d="M69,82.46a5,5,0,0,0-.4,1c0-.16,0-.31,0-.46,0-.42,0-.81-.06-1.16l-.18-2.57h-.8L68,84.14l-.86,1.65H68l3.44-6.49h-.84Z" fill="#001f5b"/>
  <path d="M65.37,80.09l.14-.79h-.78a9.77,9.77,0,0,1-.16,1L63.79,84h.81l.53-2.39c.25-1.13.58-1.61,1.47-1.61h.15l.16-.73-.25,0a1.37,1.37,0,0,0-1.28.83" fill="#001f5b"/>
  <path d="M61.32,79.19a1.67,1.67,0,0,0-1.63.92,5.2,5.2,0,0,0-.42,1.32,6.14,6.14,0,0,0-.17,1.22,1.4,1.4,0,0,0,1.57,1.48,1.75,1.75,0,0,0,1.89-1.63h-.84c-.16.65-.45,1-.92,1s-.88-.26-.88-.8a4.36,4.36,0,0,1,.1-.86h2.72a6.37,6.37,0,0,0,.15-1.09,1.38,1.38,0,0,0-1.56-1.53m.7,2H60.15c.21-1,.5-1.39,1.15-1.39s.77.3.77.89a3.66,3.66,0,0,1,0,.5" fill="#001f5b"/>
  <path d="M56.17,82.47a5.57,5.57,0,0,0-.39,1v-.31c0-.49,0-.93,0-1.31l-.18-2.57h-.8L55.19,84h.94l2.5-4.71h-.83Z" fill="#001f5b"/>
  <polygon points="53.25 77.26 53.07 78.08 53.95 78.08 54.12 77.26 53.25 77.26" fill="#001f5b"/>
  <polygon points="51.84 84.01 52.64 84.01 53.65 79.3 52.84 79.3 51.84 84.01" fill="#001f5b"/>
  <polygon points="49.31 84.01 50.13 84.01 51.56 77.26 50.75 77.26 49.31 84.01" fill="#001f5b"/>
  <path d="M46.82,79.19a1.67,1.67,0,0,0-1.63.92,5.28,5.28,0,0,0-.42,1.32,6,6,0,0,0-.17,1.22,1.4,1.4,0,0,0,1.57,1.48,1.75,1.75,0,0,0,1.89-1.63h-.84c-.16.65-.45,1-.92,1s-.88-.26-.88-.8a4.12,4.12,0,0,1,.11-.86h2.72a6.11,6.11,0,0,0,.15-1.09,1.38,1.38,0,0,0-1.57-1.53m.7,2H45.65c.21-1,.49-1.39,1.15-1.39s.77.3.77.89a3.58,3.58,0,0,1-.05.5" fill="#001f5b"/>
  <path d="M41.64,77.26H39.94L38.5,84h1.83c1.29,0,1.94-.2,2.48-1.22a8.42,8.42,0,0,0,.63-2.16A9.32,9.32,0,0,0,43.64,79c0-1.23-.63-1.7-2-1.7m.83,3.52A7.65,7.65,0,0,1,42,82.43c-.38.76-.78.83-1.72.83h-.74L40.67,78h.92c.84,0,1.12.22,1.12,1a10.37,10.37,0,0,1-.23,1.78" fill="#001f5b"/>
  <path d="M33.15,79.19a1.67,1.67,0,0,0-1.64.92,5.15,5.15,0,0,0-.42,1.32,6.3,6.3,0,0,0-.17,1.22,1.4,1.4,0,0,0,1.57,1.48,1.75,1.75,0,0,0,1.89-1.63h-.85c-.16.65-.45,1-.91,1s-.89-.26-.89-.8a4.06,4.06,0,0,1,.11-.86h2.72a6.14,6.14,0,0,0,.15-1.09,1.38,1.38,0,0,0-1.56-1.53m.7,2H32c.21-1,.5-1.39,1.15-1.39s.77.3.77.89a3.8,3.8,0,0,1,0,.5" fill="#001f5b"/>
  <path d="M28.89,79.2a1.56,1.56,0,0,0-1.4.89.87.87,0,0,0-.94-.89,1.53,1.53,0,0,0-1.3.8l.13-.69h-.76c-.06.37-.11.74-.19,1.08L23.67,84h.81l.48-2.23c.27-1.26.53-2,1.26-2,.32,0,.5.2.5.58a2.27,2.27,0,0,1-.06.45L26,84h.79l.48-2.23c.28-1.28.55-2,1.27-2,.32,0,.48.2.48.58a2.74,2.74,0,0,1-.07.45L28.26,84h.82l.65-3.08a3.36,3.36,0,0,0,.09-.66c0-.68-.37-1.08-.93-1.08" fill="#001f5b"/>
  <polygon points="21.2 84.01 22 84.01 23.01 79.3 22.2 79.3 21.2 84.01" fill="#001f5b"/>
  <polygon points="22.61 77.26 22.44 78.08 23.3 78.08 23.47 77.26 22.61 77.26" fill="#001f5b"/>
  <polygon points="21.37 77.26 17.23 77.26 17.06 78.04 18.71 78.04 17.44 84.01 18.32 84.01 19.59 78.04 21.2 78.04 21.37 77.26" fill="#001f5b"/>
  <path d="M11.57,79.2a1.68,1.68,0,0,0-1.45.8l.13-.69H9.48c-.06.37-.11.74-.19,1.08L8.53,84h.8l.48-2.23c.27-1.28.61-2,1.39-2,.36,0,.54.2.54.58a2.77,2.77,0,0,1-.07.45L11,84h.81l.64-3.08a3.59,3.59,0,0,0,.09-.66,1,1,0,0,0-1-1.08" fill="#001f5b"/>
  <path d="M6,77.15a2.2,2.2,0,0,0-2.1,1.16,8,8,0,0,0-.58,1.81A11.69,11.69,0,0,0,3,82.32a1.64,1.64,0,0,0,1.86,1.8,2.22,2.22,0,0,0,2.1-1.17,6.93,6.93,0,0,0,.57-1.74,12.63,12.63,0,0,0,.36-2.27A1.63,1.63,0,0,0,6,77.15m.56,4.13a5.38,5.38,0,0,1-.43,1.36,1.31,1.31,0,0,1-1.26.71c-.68,0-1-.36-1-1.08A14.89,14.89,0,0,1,4.28,80a6.26,6.26,0,0,1,.43-1.36A1.29,1.29,0,0,1,6,77.9c.71,0,1,.36,1,1.1a13.88,13.88,0,0,1-.41,2.28" fill="#001f5b"/>
  <path d="M103.55,64.58c0,3.19-1.13,4.52-3.19,4.52s-3.19-1.33-3.19-4.52V54.39c0-3.19,1.13-4.53,3.19-4.53s3.19,1.34,3.19,4.53v.72h5.76c-.1-5.92-2.47-10-8.95-10s-8.95,4.22-8.95,10.29v8.13c0,6.07,2.36,10.28,8.95,10.28s8.95-4.22,8.95-10.28v-.72h-5.76Z" fill="#001f5b"/>
  <path d="M89,52.65c0-5-3-7.51-8.38-7.51s-8.95,3-9.26,8.64h5.77c.1-2.37.66-3.91,3.29-3.91,1.9,0,2.82,1.23,2.82,3.55v1.64C75,58.2,70.95,61.54,70.95,67.62c0,3.55,2,6.22,5.86,6.22a9.8,9.8,0,0,0,6.74-2.67c.05.67.26,1.39.31,2.16h5.51A19.8,19.8,0,0,1,89,70.39ZM83.24,66.53c-1,1.39-2.26,2.57-3.85,2.57-1.75,0-2.68-.72-2.68-2.52,0-2.42,1.29-4.32,6.53-7.3Z" fill="#001f5b"/>
  <path d="M67.56,50.59a13.11,13.11,0,0,1,3.7.56v-6H70.07a7.47,7.47,0,0,0-6.53,3.76h-.1V45.66h-5.5V73.32H63.7v-19a3.63,3.63,0,0,1,3.86-3.7" fill="#001f5b"/>
  <polygon points="46.92 73.33 53.3 73.33 53.3 41.74 59.48 41.74 59.48 36.19 40.75 36.19 40.75 41.74 46.92 41.74 46.92 73.33" fill="#001f5b"/>
  <path d="M73.83,16.44l9-3.27a.6.6,0,0,0,.39-.82.78.78,0,0,0-1-.34l-9,3.25a.6.6,0,0,0-.39.84.81.81,0,0,0,1,.34" fill="#001f5b"/>
  <path d="M58.4,16.5,65,14.29a.43.43,0,0,0,.29-.6.59.59,0,0,0-.71-.26L58,15.64a.43.43,0,0,0-.29.6.6.6,0,0,0,.71.26" fill="#001f5b"/>
  <path d="M60,17.13a.59.59,0,0,0,.71.26l6.6-2.22a.43.43,0,0,0,.29-.6.59.59,0,0,0-.71-.27l-6.6,2.22a.43.43,0,0,0-.28.6" fill="#001f5b"/>
  <path d="M75.65,17.29a.79.79,0,0,0,1,.33l8.94-3.26a.6.6,0,0,0,.38-.83.78.78,0,0,0-1-.34l-9,3.26a.6.6,0,0,0-.39.84" fill="#001f5b"/>
  <path d="M78.8,18.42a.79.79,0,0,0,1,.33l8.86-3.26a.59.59,0,0,0,.37-.82.76.76,0,0,0-.94-.34l-8.88,3.26a.6.6,0,0,0-.39.83" fill="#001f5b"/>
  <path d="M10.61,35.67c-6.69,0-9.77,4.27-9.77,9.52V64.32c0,5.25,3.09,9.52,9.77,9.52s9.77-4.27,9.77-9.52V45.19c0-5.24-3.09-9.52-9.77-9.52M14,64.17c0,2.78-.82,4.11-3.39,4.11s-3.4-1.34-3.4-4.11V45.34c0-2.78.82-4.12,3.4-4.12S14,42.57,14,45.34Zm21.6-19c-3.34,0-4.58,1.23-7,3.29V45.66H23.16V73.33h5.76V51.62c1.34-1,2.47-1.75,3.7-1.75a1.83,1.83,0,0,1,2.05,2V73.33h5.76V51c0-3.6-1.8-5.81-4.83-5.81" fill="#ffce00"/>
  <path d="M114.12,14a1.48,1.48,0,0,0-1-1.32L83.66,3a1.44,1.44,0,0,0-.86,0L46.6,14.23a1.51,1.51,0,0,0-1,1.3V26.86a1.42,1.42,0,0,0,.88,1.31L76.11,40.59a1.64,1.64,0,0,0,1.49.2l35.6-13.51a1.43,1.43,0,0,0,.92-1.34V14M75.51,37.24,48.45,25.91V17.7L75.51,28.5ZM76.95,26,51.3,15.77,83.21,5.89l25.19,8.23Zm34.32-1L78.36,37.44V28.52l32.91-12.43ZM0,32.1c4.7-3.46,20.26-15.41,43.28-5.78,0,0,0-10.1,0-11.69C18.46,10.37,5.36,22.2,0,32.1M16.27,11.94a29.72,29.72,0,0,0-6.16,5.58C26.27,7.4,44.68,12.29,44.83,12.34L79.53,1.6S42.55-6,16.27,11.94" fill="#ffce00"/>
  <path d="M110.19,43.64v0c0,.32.11.47.37.47a.39.39,0,0,0,.43-.39c0-.24-.22-.35-.57-.58s-.57-.38-.57-.74a.67.67,0,0,1,.75-.65.62.62,0,0,1,.71.67v.06H111v-.05c0-.27-.13-.41-.37-.41a.36.36,0,0,0-.4.35c0,.28.24.4.65.66s.49.36.49.65-.28.7-.78.7-.74-.23-.74-.7c0,0,0,0,0-.08Z" fill="#001f5b"/>
  <path d="M111.78,41.83h.54l.55,1.75.11.4c0-.21.08-.35.1-.4l.53-1.74h.52v2.54h-.31V42.56c0-.1,0-.28,0-.53l-.72,2.35h-.29L112.08,42c0,.18,0,.39,0,.63v1.75h-.31Z" fill="#001f5b"/>
</svg>
