<?xml version="1.0"?>
<svg xmlns="http://www.w3.org/2000/svg" id="d5fc8a6d-8cc0-48cf-9efc-0c2d180fcf27" data-name="Layer 1" viewBox="0 0 50 50">
  <title>prestashop-icon-color</title>
  <g id="badd0dc4-cc23-414a-a2a2-20c44db69008" data-name="&lt;Group&gt;">
    <path id="4ee215a6-b366-4f46-a21f-f7536e2c70d5" data-name="&lt;Path&gt;" d="M16.21,38.36c.4-.18.8-.34,1.21-.49s.92-.34,1.4-.48a17.68,17.68,0,0,1,1.77-.46A22.67,22.67,0,0,1,23,36.55c-.46,1.45-1,2.89-1.53,4.33,0,.28,0,.56,0,.84a17.57,17.57,0,0,1,6.88,0c0-.28,0-.56,0-.84C27.93,39.44,27.42,38,27,36.55a22.67,22.67,0,0,1,2.45.38,17.68,17.68,0,0,1,1.77.46c.48.14.94.3,1.4.48s.81.31,1.21.49a21.75,21.75,0,0,1,7.54,5.56,25,25,0,1,0-32.66,0A21.75,21.75,0,0,1,16.21,38.36Z" fill="#a0dbe8"/>
    <path id="c5fc79bc-8803-408c-b663-e246a7480ddd" data-name="&lt;Path&gt;" d="M17.85,42.89a17.41,17.41,0,0,1,3.71-1.17c0-.28,0-.56,0-.84.56-1.44,1.07-2.88,1.53-4.33a22.67,22.67,0,0,0-2.45.38,17.68,17.68,0,0,0-1.77.46c-.48.14-.94.3-1.4.48l1.82.44Z" fill="#525353"/>
    <path id="e5587428-cc18-4ae7-ad1c-b1d054317662" data-name="&lt;Path&gt;" d="M13.56,45.58c0-.47.07-.94.07-1.41a.52.52,0,0,1,.52-.52h.45l1.61-5.29a21.75,21.75,0,0,0-7.54,5.56,25.06,25.06,0,0,0,3.77,2.69C12.8,46.25,13.17,45.91,13.56,45.58Z" fill="#525353"/>
    <path id="01a8a78f-f6e0-41ec-8c2b-5cec6dab9cd2" data-name="&lt;Path&gt;" d="M33.79,38.36l1.61,5.29h.45a.52.52,0,0,1,.52.52c0,.47,0,.94.07,1.41.39.33.76.67,1.12,1a25.06,25.06,0,0,0,3.77-2.69A21.75,21.75,0,0,0,33.79,38.36Z" fill="#525353"/>
    <path id="b8f33b32-fb86-41c8-a585-feedfe5f627f" data-name="&lt;Path&gt;" d="M30.76,38.31l1.82-.44c-.46-.18-.92-.34-1.4-.48a17.68,17.68,0,0,0-1.77-.46A22.67,22.67,0,0,0,27,36.55c.46,1.45,1,2.89,1.53,4.33,0,.28,0,.56,0,.84a17.41,17.41,0,0,1,3.71,1.17Z" fill="#525353"/>
    <path id="aa7d0d0a-b4a2-4154-975b-1a0c55f62cf9" data-name="&lt;Path&gt;" d="M25,43.65h3.52a13.91,13.91,0,0,1-.08-1.93,17.57,17.57,0,0,0-6.88,0,13.91,13.91,0,0,1-.08,1.93Z"/>
    <path id="f030777c-e088-4e7d-9a8e-6aa0f09d15bb" data-name="&lt;Path&gt;" d="M12.44,46.61l.88.5a13.16,13.16,0,0,0,.24-1.53C13.17,45.91,12.8,46.25,12.44,46.61Z"/>
    <path id="9b1a7306-f282-4cb4-b1fe-a7cbb83b796c" data-name="&lt;Path&gt;" d="M17.62,43.65h3.86a13.91,13.91,0,0,0,.08-1.93,17.41,17.41,0,0,0-3.71,1.17Z"/>
    <path id="73700d7a-7218-49bf-8509-4ebe8266ad10" data-name="&lt;Path&gt;" d="M36.44,45.58a13.16,13.16,0,0,0,.24,1.53l.88-.5C37.2,46.25,36.83,45.91,36.44,45.58Z"/>
    <path id="18d0ac65-e688-4a68-8a86-ee9b438215c0" data-name="&lt;Path&gt;" d="M32.38,43.65l-.23-.76a17.41,17.41,0,0,0-3.71-1.17,13.91,13.91,0,0,0,.08,1.93Z"/>
    <path id="b4adb7da-13eb-416b-9fba-3e0ac796da57" data-name="&lt;Path&gt;" d="M17.62,43.65l.23-.76,1.39-4.58-1.82-.44c-.41.15-.81.31-1.21.49L14.6,43.65h3Z" fill="#aa9678"/>
    <path id="6eaddbc3-f11d-4b24-9c71-bf6d19d33609" data-name="&lt;Path&gt;" d="M32.15,42.89l.23.76h3l-1.61-5.29c-.4-.18-.8-.34-1.21-.49l-1.82.44Z" fill="#aa9678"/>
    <path id="013c39b2-626d-405f-87bc-20b324ff66fb" data-name="&lt;Path&gt;" d="M14.66,44.72l0,0h0Z" fill="#c3b5a0"/>
    <path id="87f63187-dd23-4b57-bb11-e0f6d0b1cf03" data-name="&lt;Path&gt;" d="M25,44.69H14.7l0,0a16,16,0,0,1-.38,2.87A25,25,0,0,0,25,50Z" fill="#c3b5a0"/>
    <path id="25bab946-5231-49f4-9a1d-aba9c5cfe554" data-name="&lt;Path&gt;" d="M35.34,44.69h0l0,0Z" fill="#aa9678"/>
    <path id="8bb106b9-6a34-46fc-8be3-514fcd6b7164" data-name="&lt;Path&gt;" d="M35.3,44.69H25V50a25,25,0,0,0,10.72-2.41,16,16,0,0,1-.38-2.87Z" fill="#aa9678"/>
    <rect id="7b924fae-abc1-4fe8-9505-9c3e36cb27b6" data-name="&lt;Path&gt;" x="25" y="44.17" height="0.52" fill="#786453"/>
    <path id="7b0b6ab4-a63d-49c6-9e1f-c28432abb358" data-name="&lt;Path&gt;" d="M36.44,45.58c0-.47-.07-.94-.07-1.41a.52.52,0,0,0-.52-.52H14.15a.52.52,0,0,0-.52.52c0,.47,0,.94-.07,1.41a13.16,13.16,0,0,1-.24,1.53l1,.48a16,16,0,0,0,.38-2.87v0H35.34v0a16,16,0,0,0,.38,2.87l1-.48A13.16,13.16,0,0,1,36.44,45.58Z" fill="#8b7460"/>
    <g id="6552223e-a427-4824-98e0-6c3d454ee5d8" data-name="&lt;Group&gt;">
      <path id="e716afe9-9ca2-4123-92eb-6e14e2d6658f" data-name="&lt;Path&gt;" d="M33.41,21.2h0A22.24,22.24,0,0,1,34.27,24l0,.2c0,.1,0,.19,0,.27,0-.12,0-.27.07-.44a19.42,19.42,0,0,0-.86-2.78h0Z" fill="none"/>
      <path id="86da29a7-e357-459a-a6f1-d4ac6cdb767f" data-name="&lt;Path&gt;" d="M40.69,26.85l0,0Z" fill="none"/>
      <path id="a7314c72-c801-4a14-8536-2c7e1e35f34d" data-name="&lt;Path&gt;" d="M40.86,26.73l-.06.05Z" fill="none"/>
      <path id="8277f81f-854c-496f-8358-168c0da1d93e" data-name="&lt;Path&gt;" d="M32.66,20.54a15.42,15.42,0,0,0-1.81-1.31h0A15.42,15.42,0,0,1,32.66,20.54Z" fill="none"/>
      <path id="88b36902-691b-42ea-a9d8-b4bfeba7d950" data-name="&lt;Path&gt;" d="M38.46,26.53v0Z" fill="none"/>
      <path id="3ddb7b8e-f9b2-428f-a1bb-ee5ba6ce7d0e" data-name="&lt;Path&gt;" d="M39.52,27.86l0,.06Z" fill="none"/>
      <path id="9a31c709-a081-463a-abb3-97dd738367ac" data-name="&lt;Path&gt;" d="M34.19,24.46c0,.07,0,.14,0,.19S34.17,24.53,34.19,24.46Z" fill="none"/>
      <path id="59aac5af-85e1-411f-99ae-6fd3686d8770" data-name="&lt;Path&gt;" d="M31.74,33.58A6.68,6.68,0,0,0,31,35.39a6.68,6.68,0,0,1,.77-1.81l.37-.62c-.12.2-.24.41-.37.61Z" fill="none"/>
      <path id="516fbde5-3686-4709-a11f-4553ad70f4ec" data-name="&lt;Path&gt;" d="M33.42,21.2l.06-.14h0l-.06.13.44.39Z" fill="none"/>
      <path id="256c09c2-b1d1-40b6-abf2-4dd2daa0135c" data-name="&lt;Path&gt;" d="M28.45,24.48h0Z" fill="none"/>
      <path id="18ebeefd-5532-49bb-99d8-97244d197f87" data-name="&lt;Path&gt;" d="M28.27,24.06Z" fill="none"/>
      <path id="4fb1f051-dfa3-45c0-99c7-78a0b3b9bac7" data-name="&lt;Path&gt;" d="M30,18.72l-.08,0Z" fill="none"/>
      <path id="5b64a4d6-0a18-419f-9120-55fdbc6a5df6" data-name="&lt;Path&gt;" d="M30.09,18.79,30,18.73Z" fill="none"/>
      <path id="5c221c9b-75f9-4ad7-94c9-2280b41d7a4d" data-name="&lt;Path&gt;" d="M30.91,20.8v0Z" fill="none"/>
      <path id="2bef8106-1482-4e49-a70b-216cf36ce77d" data-name="&lt;Path&gt;" d="M28.37,24.26h0Z" fill="none"/>
      <path id="056391d9-93ce-46b8-bf12-6b32821ab293" data-name="&lt;Path&gt;" d="M40.54,29.18l.09.12Z" fill="none"/>
      <path id="c4c55d3d-6de5-4934-b17b-471997360ee0" data-name="&lt;Path&gt;" d="M30.9,21.59c0,.26,0,.53,0,.79C30.89,22.12,30.9,21.85,30.9,21.59Z" fill="none"/>
      <path id="1a88ea83-d1cb-467a-88ff-38c9bd5f3e90" data-name="&lt;Path&gt;" d="M28.52,24.71Z" fill="none"/>
      <path id="36a2256f-6cbc-417c-8d4a-9aec266b0040" data-name="&lt;Path&gt;" d="M30.8,19.2l-.54-.32Z" fill="none"/>
      <path id="41a7d598-2af0-4437-b6e7-f0bc8818bbcc" data-name="&lt;Path&gt;" d="M30.24,18.88l-.15-.09Z" fill="none"/>
      <path id="afd91829-3c11-422e-955e-395a1a855501" data-name="&lt;Path&gt;" d="M30.84,19.22Z" fill="none"/>
      <path id="55daad7d-a6f4-47e2-9aaf-5d2b05f258ba" data-name="&lt;Path&gt;" d="M41.37,25.29s0,0,0-.06h0a.07.07,0,0,0,0,0,.13.13,0,0,1,0,.06S41.37,25.27,41.37,25.29Z" fill="none"/>
      <path id="efd21463-09d8-4ca9-96be-af14daf81dcc" data-name="&lt;Path&gt;" d="M37.28,25.14a.27.27,0,0,1,.07.08h0l-.08-.08Z" fill="none"/>
      <path id="cdde9b83-cc5c-4042-8d7a-f79ee71e28fc" data-name="&lt;Path&gt;" d="M33.86,21.59c.34.31.66.62,1,.94C34.52,22.21,34.2,21.9,33.86,21.59Z" fill="none"/>
      <path id="3c75d201-f97f-470a-a4f3-badfa6d7a4e1" data-name="&lt;Path&gt;" d="M40.37,23.5a1.13,1.13,0,0,1,.18,0A1.13,1.13,0,0,0,40.37,23.5Z" fill="none"/>
      <path id="8c9a52b5-4314-411d-84ce-a6f2ef82668e" data-name="&lt;Path&gt;" d="M39.41,24.75s0,.05,0,.08S39.41,24.77,39.41,24.75Z" fill="none"/>
      <path id="8134331c-c583-4be8-870c-dec9223e3543" data-name="&lt;Path&gt;" d="M40.6,23.55a.35.35,0,0,1,.12.07A.35.35,0,0,0,40.6,23.55Z" fill="none"/>
      <path id="f1eac862-6cc0-4061-a417-4bad2ad28243" data-name="&lt;Path&gt;" d="M41,23.87a.21.21,0,0,0,0,.06A.21.21,0,0,1,41,23.87Z" fill="none"/>
      <path id="8bd265fb-e5b9-4d3a-9d4a-01f9e199a6b1" data-name="&lt;Path&gt;" d="M41.36,24.87h0v0a0,0,0,0,0,0,0Z" fill="none"/>
      <path id="49d00247-15b7-4c20-b40d-e253684d84b2" data-name="&lt;Path&gt;" d="M41.35,25.6v0h0a.08.08,0,0,0,0,0Z" fill="none"/>
      <path id="be6f71cb-f046-49bd-9f1a-87eebd99b751" data-name="&lt;Path&gt;" d="M39.72,23.93l0-.06Z" fill="none"/>
      <path id="17310977-b22c-4845-92da-107f0afe68b9" data-name="&lt;Path&gt;" d="M40.19,23.53l.18,0Z" fill="none"/>
      <path id="8d3d12fd-84e5-4a3b-9259-d09e9a9af380" data-name="&lt;Path&gt;" d="M35.75,23.46c-.15-.17-.31-.32-.46-.48C35.44,23.14,35.6,23.29,35.75,23.46Z" fill="none"/>
      <path id="a2ed5260-0aa6-49f5-97d6-aff4dd47f092" data-name="&lt;Path&gt;" d="M40.37,18h0v2.32l-.89,4.08a0,0,0,0,1,0,0v0h0l.89-4.08V18Z" fill="none"/>
      <path id="42d4e8b4-8e4a-4fc6-8d2d-4f37368afa95" data-name="&lt;Path&gt;" d="M36.59,24.35l-.25-.26Z" fill="none"/>
      <path id="4b76bb0c-82a8-41a2-adb6-4542e3eea47f" data-name="&lt;Path&gt;" d="M41.26,24.44l0,.1h0l0-.09Z" fill="none"/>
      <path id="08196af9-c642-4d7c-b25e-f99d40694332" data-name="&lt;Path&gt;" d="M39.37,25.22h0v0Z" fill="none"/>
      <path id="6f100c60-f967-4c46-bd24-8c2781cd47bf" data-name="&lt;Path&gt;" d="M40,23.62l.12-.07Z" fill="none"/>
      <path id="2747a11d-0ac2-479a-9b5c-0c44246b5b96" data-name="&lt;Path&gt;" d="M39.84,23.77l.13-.12Z" fill="none"/>
      <path id="7b70aeb0-3b35-418f-98f7-6122177fbb9d" data-name="&lt;Path&gt;" d="M41.29,25.92h0a2.41,2.41,0,0,1-.08.25l.09-.26Z" fill="none"/>
      <path id="9ed0707c-73fd-460d-9e70-feeca511e635" data-name="&lt;Path&gt;" d="M10.83,24.45l.11-.17Z" fill="none"/>
      <path id="2c53839d-e5d7-4f26-bcdb-8c887af47be2" data-name="&lt;Path&gt;" d="M40.78,23.65l.13.12Z" fill="none"/>
      <path id="3d867e6d-040f-438e-9683-afdb2acde198" data-name="&lt;Path&gt;" d="M11.53,23.41l.06-.07Z" fill="none"/>
      <path id="f198175f-9aba-4206-94fa-00c61994e665" data-name="&lt;Path&gt;" d="M28.58,25.21h0Z" fill="none"/>
      <path id="6356a79b-032a-4884-bada-bc0047f2d9e3" data-name="&lt;Path&gt;" d="M9.74,26.45l-.13.27Z" fill="none"/>
      <path id="78c366a4-9d19-4634-93c0-7cbc5a40e4cc" data-name="&lt;Path&gt;" d="M9.19,27.72l0,.05Z" fill="none"/>
      <polygon id="175d8868-1d04-433b-a6c1-5731a3c6edb5" data-name="&lt;Path&gt;" points="40.99 18.63 40.99 18.63 40.99 18.63 40.99 18.63" fill="none"/>
      <polygon id="512c16db-882d-447b-8f57-b076cead59bd" data-name="&lt;Path&gt;" points="14.13 20.61 14.13 20.61 14.13 20.61 14.13 20.61" fill="none"/>
      <path id="a38b93f4-d9e3-436b-8d9f-a21e2a9c144f" data-name="&lt;Path&gt;" d="M13.15,21.52l.15-.15Z" fill="none"/>
      <path id="4d608dc1-b004-4c3c-acd7-f7ec2ac9b8e0" data-name="&lt;Path&gt;" d="M12.27,22.48l.15-.18Z" fill="none"/>
      <polygon id="262ede5a-5d87-4529-95e7-522438b99b4b" data-name="&lt;Path&gt;" points="41.26 24.44 40.37 20.36 41.26 24.44 41.26 24.44" fill="none"/>
      <path id="9564e932-7175-498a-bf5d-b8b471c731c6" data-name="&lt;Path&gt;" d="M25.74,27.53h0Z" fill="none"/>
      <path id="96088c57-2548-4d25-9a7b-8cfe001d324a" data-name="&lt;Path&gt;" d="M26,27.57h0Z" fill="none"/>
      <path id="6849147c-0400-424e-846a-d160cb354c90" data-name="&lt;Path&gt;" d="M10.29,25.37l-.17.31Z" fill="none"/>
      <path id="782404e7-c4c1-4571-8426-c4ca4be2254d" data-name="&lt;Path&gt;" d="M25.07,27.28Z" fill="none"/>
      <path id="92f6443e-b3e9-4c51-a9c4-1ac168d09031" data-name="&lt;Path&gt;" d="M25.51,27.47h0Z" fill="none"/>
      <path id="80f3a330-6617-4180-adf6-3c7ebb98f91d" data-name="&lt;Path&gt;" d="M25.28,27.38h0Z" fill="none"/>
      <path id="673ad1d4-b864-4549-8efb-2175a5576c53" data-name="&lt;Path&gt;" d="M24,26.11h0Z" fill="none"/>
      <path id="27b08f2b-0f4d-46f1-b101-a0587d1dd770" data-name="&lt;Path&gt;" d="M23.93,24.69a.07.07,0,0,0,0,0A.07.07,0,0,1,23.93,24.69Z" fill="none"/>
      <path id="383e4535-dddb-4622-8255-bb52373bc74b" data-name="&lt;Path&gt;" d="M24.17,24.06h0Z" fill="none"/>
      <path id="71d87245-df55-4349-acfa-b3f9511134bf" data-name="&lt;Path&gt;" d="M25,23.24Z" fill="none"/>
      <path id="c7280c72-2e80-4e7d-b254-dfa169debe2c" data-name="&lt;Path&gt;" d="M24,24.47v0S24,24.48,24,24.47Z" fill="none"/>
      <path id="33334075-fc26-4360-a4b9-9f4fbcd304ae" data-name="&lt;Path&gt;" d="M24.07,24.26v0Z" fill="none"/>
      <path id="8a240cb7-00d6-4d95-8491-fc94bdb7696c" data-name="&lt;Path&gt;" d="M26.68,22.91h0Z" fill="none"/>
      <path id="4329fb58-2dba-4cfc-ab6a-cfc6f573e387" data-name="&lt;Path&gt;" d="M27.11,23h0Z" fill="none"/>
      <path id="2883a647-fe7a-4b56-b36d-cefb6c22b800" data-name="&lt;Path&gt;" d="M25.35,23h0Z" fill="none"/>
      <path id="a51d7543-9827-4a34-a5b8-482097e24b0f" data-name="&lt;Path&gt;" d="M25.78,22.91h0Z" fill="none"/>
      <path id="ae5f99a5-0ac0-4f65-8a4e-c700982e54c7" data-name="&lt;Path&gt;" d="M28.56,24.94h0Z" fill="none"/>
      <path id="1078d50b-5a21-4876-9a62-de806c7a7c03" data-name="&lt;Path&gt;" d="M26.23,17.38h0Z" fill="none"/>
      <path id="02ed9a9a-64ba-450e-b0cd-4eee266431a7" data-name="&lt;Path&gt;" d="M26.23,18v0Z" fill="none"/>
      <path id="285f6903-1e52-4d7e-b5f9-92665a2d59af" data-name="&lt;Path&gt;" d="M41.06,26.48a.76.76,0,0,1-.08.11A.76.76,0,0,0,41.06,26.48Z" fill="none"/>
      <path id="580250c1-c923-400e-8f0f-9c7409cdd803" data-name="&lt;Path&gt;" d="M23.89,24.92a.13.13,0,0,0,0,.06A.13.13,0,0,1,23.89,24.92Z" fill="none"/>
      <path id="485da68e-3278-49d4-a745-16ce070a6a74" data-name="&lt;Path&gt;" d="M23.91,25.68h0Z" fill="none"/>
      <path id="0f8d4d0d-db9c-4f60-8e60-b07b35f40ae6" data-name="&lt;Path&gt;" d="M41.19,26.23c0,.06,0,.11-.08.16S41.16,26.29,41.19,26.23Z" fill="none"/>
      <path id="6418cdce-d18d-4bcc-b618-0c1d7daa4636" data-name="&lt;Path&gt;" d="M32.16,40.09a3.7,3.7,0,0,1-.24-.29,3.7,3.7,0,0,0,.24.29Z" fill="#525353"/>
      <path id="fe5644d1-6b97-4f57-9799-dfd53434b930" data-name="&lt;Path&gt;" d="M32.73,40.66h0a4.87,4.87,0,0,1-.57-.57h0A4.87,4.87,0,0,0,32.73,40.66Z" fill="#aa9678"/>
      <polygon id="ca58f2b5-4d06-419e-a483-908f7a01cd83" data-name="&lt;Path&gt;" points="40.37 18.04 40.37 18.04 40.37 18.04 40.37 18.04 40.37 18.04" fill="#fff"/>
      <polygon id="1995a26f-bfff-4bc4-bde2-c9c20daeb1e7" data-name="&lt;Path&gt;" points="41.38 25.23 41.38 25.23 41.38 25.23 41.38 25.23" fill="#fff"/>
      <path id="ff9b4f74-d59d-4e37-a1bb-7fbd5f66b404" data-name="&lt;Path&gt;" d="M41.65,19.44h0l0,0h0a7.34,7.34,0,0,0-.64-.79h0l-.31-.31-.11-.1-.2-.17h0v2.32l.89,4.08h0l0,.09.62.7h.65c0-.06,0-.12,0-.18h0a17.56,17.56,0,0,0-.89-5.5h0Z" fill="#bbbcbd"/>
      <polygon id="0a0b86f9-ee99-4667-a7e0-67cb242042f4" data-name="&lt;Path&gt;" points="41.38 25.23 41.38 25.22 41.38 25.23 41.38 25.23" fill="#bbbcbd"/>
      <path id="43187abc-e212-4274-b460-54f277d43345" data-name="&lt;Path&gt;" d="M41.35,24.84v0h0c0,.1,0,.2,0,.3a.07.07,0,0,1,0,0h0s0,0,0,.06a2.71,2.71,0,0,1,0,.29h0v0a1.59,1.59,0,0,1-.06.3h0l.61-.68-.62-.7h0A1.33,1.33,0,0,1,41.35,24.84Z" fill="#676a6a"/>
      <path id="1feed3a1-9bb8-4507-a114-3ae65def9b53" data-name="&lt;Compound Path&gt;" d="M41.35,25.62a.08.08,0,0,1,0,0,2.71,2.71,0,0,0,0-.29s0,0,0-.06a.13.13,0,0,0,0-.06c0-.1,0-.2,0-.3a0,0,0,0,1,0,0,1.33,1.33,0,0,0-.06-.3l0-.1a2,2,0,0,0-.23-.51.21.21,0,0,1,0-.06l-.08-.1-.13-.12-.06,0a.35.35,0,0,0-.12-.07l-.05,0a1.13,1.13,0,0,0-.18,0l-.18,0,0,0-.12.07-.05,0-.13.12-.08.1,0,.06a1.72,1.72,0,0,0-.24.51v0l-.06.29s0,.05,0,.08a2,2,0,0,0,0,.34v0h0c0,1,.45,1.72,1,1.72a.66.66,0,0,0,.27-.06l0,0a.41.41,0,0,0,.11-.07l.06-.05.12-.14a.76.76,0,0,0,.08-.11l0-.09c0-.05,0-.1.08-.16a.14.14,0,0,0,0-.06,2.41,2.41,0,0,0,.08-.25A1.59,1.59,0,0,0,41.35,25.62ZM40.41,25c-.21,0-.38-.29-.38-.65s.17-.65.38-.65.38.29.38.65S40.62,25,40.41,25Z"/>
      <path id="202cc06d-4b42-4781-ab6a-56411bc9cbfd" data-name="&lt;Path&gt;" d="M40.41,23.7c-.21,0-.38.29-.38.65s.17.65.38.65.38-.29.38-.65S40.62,23.7,40.41,23.7Z" fill="#fff"/>
      <path id="84aca07b-5bdc-4271-bc8c-ac3c107be02a" data-name="&lt;Path&gt;" d="M39.48,24.44h0a1.72,1.72,0,0,1,.24-.51l0-.06.08-.1.13-.12.05,0,.12-.07,0,0,.18,0a1.13,1.13,0,0,1,.18,0l.05,0a.35.35,0,0,1,.12.07l.06,0,.13.12.08.1a.21.21,0,0,0,0,.06,2,2,0,0,1,.23.51h0l-.89-4.08-.89,4.08Z" fill="#909393"/>
      <path id="b749f4ab-5463-47f0-995c-2df3c97f1581" data-name="&lt;Compound Path&gt;" d="M28.57,25.19a1.93,1.93,0,0,0,0-.24h0a1.85,1.85,0,0,0,0-.23h0l-.06-.23h0a1.8,1.8,0,0,0-.08-.21h0l-.1-.2h0a2.49,2.49,0,0,0-.43-.54,2.57,2.57,0,0,0-.73-.48h0a2.58,2.58,0,0,0-.42-.13h0a2.15,2.15,0,0,0-.45,0,2.12,2.12,0,0,0-.44,0h0a2,2,0,0,0-.41.13h0a2.38,2.38,0,0,0-.39.2h0a2.88,2.88,0,0,0-.34.27h0a2.49,2.49,0,0,0-.43.54h0a1.74,1.74,0,0,0-.1.19v0l-.07.19s0,0,0,0a1,1,0,0,0-.05.18.07.07,0,0,0,0,0,.57.57,0,0,0,0,.18.13.13,0,0,0,0,.06,1.93,1.93,0,0,0,0,.24,2.32,2.32,0,0,0,0,.46h0a2,2,0,0,0,.13.42h0a2.42,2.42,0,0,0,1,1.16h0l.2.1h0l.19.08h0l.18.05h0l.18,0h.3a2.33,2.33,0,0,0,.92-.19,3,3,0,0,0,.4-.21,2.4,2.4,0,0,0,.63-.64,2.24,2.24,0,0,0,.22-.4,2.33,2.33,0,0,0,.19-.92h0v0Zm-2.35-.28a.89.89,0,0,1,0-1.77.89.89,0,1,1,0,1.77Z"/>
      <path id="f9d75013-e2dd-4e78-908f-a6819b966512" data-name="&lt;Path&gt;" d="M26.22,23.14a.89.89,0,1,0,.89.89A.88.88,0,0,0,26.22,23.14Z" fill="#fff"/>
      <path id="120c8822-1cf8-4952-8d6a-cdd5f7cdb606" data-name="&lt;Path&gt;" d="M24.6,23.52h0l1.62-5V17.38h0a14.17,14.17,0,0,0-2.78-.29c-.32,0-.63,0-.94,0h-.14a14.07,14.07,0,0,0-4.72,1.22,15.53,15.53,0,0,0-3.52,2.26h0c-.29.24-.56.5-.83.76l-.15.15c-.25.25-.49.51-.73.78l-.15.18c-.23.28-.46.56-.68.86l-.06.07-.59.87-.11.17c-.16.25-.3.5-.44.75h7.39Z" fill="#bbbcbd"/>
      <path id="f9509e84-e21b-4e1b-8cc7-0504d81215fb" data-name="&lt;Path&gt;" d="M30.84,23c0-.2,0-.39,0-.58s0-.53,0-.79,0-.41,0-.61V20.8c0-.52,0-1.05-.06-1.57H30.8l-.54-.32h0l-.15-.09h0L30,18.73h0l-.08,0c-.34-.18-.68-.34-1-.49a17.71,17.71,0,0,0-2.61-.82v1.18l1.61,5h0a2.49,2.49,0,0,1,.43.54h0l.1.2h0a1.8,1.8,0,0,1,.08.21h0l.06.23h0a1.85,1.85,0,0,1,0,.23h0a1.93,1.93,0,0,1,0,.24h2c.13-.72.22-1.45.28-2.18Z" fill="#e2dddb"/>
      <polygon id="78dd5625-abc2-4c8a-8563-6d3f38aa6b45" data-name="&lt;Path&gt;" points="33.41 21.2 33.41 21.21 33.41 21.2 33.41 21.2" fill="#fbb040"/>
      <path id="21fbad42-1fe2-4cfd-b3c7-a03a5263122d" data-name="&lt;Path&gt;" d="M28.59,32.28c.45-.44.87-.87,1.27-1.28l.7-.74a15.54,15.54,0,0,0,3.58-5.61s0-.12,0-.19v0c0-.08,0-.17,0-.27l0-.2a22.24,22.24,0,0,0-.85-2.74h0L33.23,21l-.57-.5a15.42,15.42,0,0,0-1.81-1.31h0c0,.52,0,1.05.06,1.57V21c0,.2,0,.41,0,.61s0,.53,0,.79,0,.38,0,.58V23c-.06.73-.15,1.46-.28,2.18l-.23,1.1a36.23,36.23,0,0,1-2.27,5.56c-.22.49-.42,1-.6,1.48l-.05.14.65-.66Z" fill="#fbb040"/>
      <path id="b2501615-1315-439f-bf65-97db03b912bf" data-name="&lt;Path&gt;" d="M24.61,23.51h0a2.88,2.88,0,0,1,.34-.27h0a2.38,2.38,0,0,1,.39-.2h0a2,2,0,0,1,.41-.13h0a2.12,2.12,0,0,1,.44,0,2.15,2.15,0,0,1,.45,0h0a2.58,2.58,0,0,1,.42.13h0a2.57,2.57,0,0,1,.73.48h0l-1.61-5Z" fill="#909393"/>
      <path id="2c7d68c6-4cf3-4568-ba77-ba880af693ab" data-name="&lt;Path&gt;" d="M24,26.11a2,2,0,0,1-.13-.42h0a2.32,2.32,0,0,1,0-.46,1.93,1.93,0,0,1,0-.24.13.13,0,0,1,0-.06.57.57,0,0,1,0-.18.07.07,0,0,1,0,0,1,1,0,0,1,.05-.18v0l.07-.19v0a1.74,1.74,0,0,1,.1-.19h0a2.49,2.49,0,0,1,.43-.54h0L17.78,25.2h0l6.76,1.65a2.57,2.57,0,0,1-.48-.73Z" fill="#676a6a"/>
      <path id="21cd78e2-e76c-4da5-953f-318ad519bee1" data-name="&lt;Path&gt;" d="M39.4,24.83s0-.06,0-.08l.06-.29a0,0,0,0,0,0,0l.89-4.08V18a3.63,3.63,0,0,0-2.32-.93,4,4,0,0,0-2.69,1.27,10.1,10.1,0,0,0-1.88,2.69l-.06.14.44.39c.34.31.66.62,1,.94l.45.45c.15.16.31.31.46.48s.4.41.59.63l.25.26.69.79h0l.08.08h2v0A2,2,0,0,1,39.4,24.83Z" fill="#e2dddb"/>
      <polygon id="2ec1c22a-d37e-4676-aadf-45156a5abb06" data-name="&lt;Path&gt;" points="33.42 21.21 33.41 21.2 33.41 21.2 33.41 21.21 33.42 21.22 33.42 21.21" fill="#e2dddb"/>
      <path id="674c74b3-870d-4da1-85cf-7eb089abbb5a" data-name="&lt;Path&gt;" d="M9.17,27.77l0-.05c.13-.33.27-.67.42-1l.13-.27c.12-.26.25-.52.38-.77l.17-.31.1-.17c.14-.25.28-.5.44-.75l.11-.17.59-.87.06-.07c.22-.3.45-.58.68-.86l.15-.18c.24-.27.48-.53.73-.78l.15-.15c.27-.26.54-.52.83-.76h0a9,9,0,0,1,13.29-5.18,9.2,9.2,0,0,1,3.35,3.65v0l.06.11h0a15.42,15.42,0,0,1,1.81,1.31l.57.5.18.17h0l.06-.13c.57-3.62,2.17-6.22,4.05-6.22,1.42,0,2.67,1.48,3.45,3.75v0h0a7.34,7.34,0,0,1,.64.79h0l0,0h0l0,.1h0l0-.12A17.54,17.54,0,0,0,7.5,25a17.25,17.25,0,0,0,.87,5.46h0c.11-.52.25-1,.4-1.54S9,28.16,9.17,27.77Z" fill="#525353"/>
      <path id="331ad8a3-27d5-4f35-8bf0-7bee15a50679" data-name="&lt;Path&gt;" d="M41.91,25.23l-.61.68h0l-.09.26a.14.14,0,0,1,0,.06c0,.06,0,.11-.08.16l0,.09a.76.76,0,0,1-.08.11l-.12.14-.06.05a.41.41,0,0,1-.11.07l0,0a.66.66,0,0,1-.27.06c-.56,0-1-.77-1-1.72h-2c.38.43.75.87,1.11,1.31v0c.36.43.7.87,1.05,1.31l0,.06,1,1.26.09.12c.34.44.68.89,1,1.34h0a17.72,17.72,0,0,0,.92-5.43h-.66Z" fill="#fff"/>
      <path id="9cdaff4d-8758-49c9-bb07-297973886e16" data-name="&lt;Path&gt;" d="M22.37,17.13h.14c.31,0,.62,0,.94,0a14.17,14.17,0,0,1,2.78.29h0v0a17.71,17.71,0,0,1,2.61.82c.36.15.7.31,1,.49l.08,0h0l.11.06h0l.15.09h0l.54.32h0l-.06-.11v0a9.2,9.2,0,0,0-3.35-3.65,9,9,0,0,0-13.29,5.18,15.53,15.53,0,0,1,3.52-2.26A14.07,14.07,0,0,1,22.37,17.13Z"/>
      <path id="e2a346fa-283d-4fc0-95d5-085fc8882228" data-name="&lt;Path&gt;" d="M35.36,18.37a4,4,0,0,1,2.69-1.27,3.63,3.63,0,0,1,2.32.93h0l.2.17.11.1.31.31h0v0c-.78-2.27-2-3.75-3.45-3.75-1.88,0-3.48,2.6-4.05,6.22h0A10.1,10.1,0,0,1,35.36,18.37Z"/>
      <path id="fcea2a89-d944-4a5f-a2d0-0f79c5fb14d9" data-name="&lt;Path&gt;" d="M18.75,41.39l.49.17a17.34,17.34,0,0,0,5.79,1,17.57,17.57,0,0,0,6.55-1.27l.32-.14.51-.22.45-.22-.11,0h0a7.23,7.23,0,0,1-1.86,0c-3.61-.51-4.41-2.25-4.29-4.07a8.16,8.16,0,0,1-.8-.51A23.39,23.39,0,0,1,21.38,32a23.05,23.05,0,0,0,5.34,2.89l.2.08c.15-.52.33-1,.48-1.45h0l.05-.14c.18-.5.38-1,.6-1.48a36.23,36.23,0,0,0,2.27-5.56l.23-1.1h-2a2.33,2.33,0,0,1-.19.92,2.24,2.24,0,0,1-.22.4,2.4,2.4,0,0,1-.63.64,3,3,0,0,1-.4.21,2.33,2.33,0,0,1-.92.19h-.3l-.18,0h0l-.18-.05h0l-.19-.08h0l-.2-.1h0a2.55,2.55,0,0,1-.55-.43L17.76,25.2H10.39l-.1.17-.17.31c-.13.25-.26.51-.38.77l-.13.27c-.15.33-.29.67-.42,1l0,.05c-.14.39-.28.78-.4,1.17s-.29,1-.4,1.54a17.57,17.57,0,0,0,6.38,8.73l.26.18c.5.35,1,.67,1.55,1A17.49,17.49,0,0,0,18.75,41.39Z" fill="#fff"/>
      <path id="75b5edfa-320d-4cc0-80bb-3f2c685e1cab" data-name="&lt;Path&gt;" d="M30.86,35.94a3.51,3.51,0,0,0-.05.55,4.69,4.69,0,0,0,.06.93A5.05,5.05,0,0,0,31,38a5.49,5.49,0,0,0,.63,1.38l.12.19.18.25a3.7,3.7,0,0,0,.24.29,4.87,4.87,0,0,0,.57.57h0v0h0l.11,0a11.24,11.24,0,0,0,2.35-.59c.39-.14.79-.29,1.18-.47l.35-.17a31,31,0,0,0,7.38-5.38A22,22,0,0,1,30.86,35.94Z" fill="#9f2255"/>
      <path id="f7d3ab62-2cf0-4ee2-8b3a-787d1224065a" data-name="&lt;Path&gt;" d="M40.54,29.18l-1-1.26,0-.06c-.35-.44-.69-.88-1.05-1.31v0c-.36-.44-.73-.88-1.11-1.31a.27.27,0,0,0-.07-.08l-.69-.79-.25-.26c-.19-.22-.39-.43-.59-.63s-.31-.32-.46-.48l-.45-.45c-.32-.32-.64-.63-1-.94l-.44-.39h0A19.42,19.42,0,0,1,34.27,24c0,.25.09.49.12.73.44,3.28-.61,5.43-2.28,8.25l-.37.62A6.68,6.68,0,0,0,31,35.39c0,.19-.08.37-.11.55a22,22,0,0,0,13.26-1.85s-1-1.45-2.48-3.45c-.33-.45-.67-.9-1-1.34Z" fill="#e2056f"/>
      <path id="c0f4d81f-ee45-452a-bd7f-345ffba26c72" data-name="&lt;Path&gt;" d="M32.73,40.66a4.87,4.87,0,0,1-.57-.57,3.7,3.7,0,0,1-.24-.29l-.18-.25-.12-.19A5.49,5.49,0,0,1,31,38a5.05,5.05,0,0,1-.12-.56,4.69,4.69,0,0,1-.06-.93,3.51,3.51,0,0,1,.05-.55c0-.18.06-.36.11-.55a6.68,6.68,0,0,1,.77-1.81h0c.13-.2.25-.41.37-.61,1.67-2.82,2.72-5,2.28-8.25,0-.24-.07-.48-.12-.73,0,.17-.05.32-.07.44v0c0,.07,0,.14,0,.19a15.54,15.54,0,0,1-3.58,5.61l-.7.74c-.4.41-.82.84-1.27,1.28l-.54.54-.65.66h0c-.15.44-.33.93-.48,1.45l-.2-.08A23.05,23.05,0,0,1,21.38,32a23.39,23.39,0,0,0,4.42,4.16,8.16,8.16,0,0,0,.8.51c-.12,1.82.68,3.56,4.29,4.07a7.23,7.23,0,0,0,1.86,0v0Z"/>
    </g>
  </g>
</svg>
