<?xml version="1.0"?>
<svg xmlns="http://www.w3.org/2000/svg" id="382d770f-903c-437b-98ae-af20099f2550" data-name="Layer 1" viewBox="0 0 710.79 116.09">
  <title>prestashop-color</title>
  <g id="9839ad9a-5a56-48a5-ab09-9ce334c4db0e" data-name="&lt;Group&gt;">
    <g id="0e77cfd4-5a4b-4b11-b9d7-4069fd0c6c26" data-name="&lt;Group&gt;">
      <path id="77a64745-03fa-4b61-9a94-4378632f2c26" data-name="&lt;Compound Path&gt;" d="M258.23,69.31a13.55,13.55,0,0,1-.11-2q0-8.76,5.82-13.67a19.5,19.5,0,0,1,12.87-4.91q9.29,0,12.92,7ZM303.3,61a21.24,21.24,0,0,0-7.8-16.82q-7.69-6.46-19.33-6.46a31.29,31.29,0,0,0-14,3.26A28,28,0,0,0,251.08,51.1a28.6,28.6,0,0,0-4.49,16q0,13.14,8.65,21.14a29.43,29.43,0,0,0,20.72,8q13.78,0,23.92-10.47l-7-7.8a19.57,19.57,0,0,1-15.75,7.48q-9.56,0-15.11-6.84l41.44-17.41Z" fill="#1f0047"/>
      <path id="d21beae4-c195-4984-956d-7014cdd39484" data-name="&lt;Path&gt;" d="M232.87,41.22A24.76,24.76,0,0,0,225,50V38.55h-12V95.37h12V71q0-9.72,4.49-15.49t13.35-5.77h.64l-.11-12.07a18.92,18.92,0,0,0-10.52,3.52" fill="#1f0047"/>
      <path id="958b3c1f-e673-4f66-8605-4d8c1d4b0e95" data-name="&lt;Path&gt;" d="M346.17,66.43a33.6,33.6,0,0,0-5.39-3q-2.51-1.07-5.18-1.92t-6.14-1.71A26.76,26.76,0,0,1,324.06,58a4.24,4.24,0,0,1-2.78-4.06A5,5,0,0,1,324,49.29a13.74,13.74,0,0,1,6.94-1.55A26.78,26.78,0,0,1,346,52.33l4.48-8.86a33.22,33.22,0,0,0-18.58-5.77q-9.83,0-16,4.75a15.2,15.2,0,0,0-6.14,12.66q0,11.21,17.73,16,.42.11,1.28.43,11.32,3.42,11.32,7.69A5.82,5.82,0,0,1,337.73,84a10,10,0,0,1-6.41,1.87q-9.29,0-19.22-7.48l-5.77,9.29a38.63,38.63,0,0,0,11.8,6.3A40.33,40.33,0,0,0,331,96.22q9.19,0,15.06-4.86a16,16,0,0,0,5.87-13q0-8.11-5.77-12" fill="#1f0047"/>
      <path id="40e4ae63-f86e-4f5a-8ea0-92640b31af74" data-name="&lt;Compound Path&gt;" d="M187.9,58q-3.79,4-14.26,4H159V32.15h12.82q10.25,0,15.06,3.2t4.81,10.95q0,7.74-3.79,11.75m8.92-30.81Q189,20.72,172,20.72H146.41V95.37H159V73.48h13.24q16.45,0,24.4-6.3t8-19.86q0-13.56-7.8-20.08" fill="#1f0047"/>
      <path id="c69e4695-f5af-4640-ae57-6326d5097a45" data-name="&lt;Path&gt;" d="M379.92,85.86a7.58,7.58,0,0,1-6-2.4A9.36,9.36,0,0,1,371.81,77V48.16h15V38.55h-15V20.72h-12v56q0,9,5.39,14.26a17.93,17.93,0,0,0,13,5.29,20.39,20.39,0,0,0,13.94-5.66l-4.91-8.44q-3.52,3.74-7.37,3.74" fill="#1f0047"/>
      <path id="f38cecf9-9dc2-4c97-b796-59ff392d2d4b" data-name="&lt;Compound Path&gt;" d="M434.67,80.47a15.86,15.86,0,0,1-12,5.18,17,17,0,0,1-12.28-5.13q-5.23-5.13-5.23-13.3a19.1,19.1,0,0,1,5.13-13.62,16.28,16.28,0,0,1,12.28-5.45,15.62,15.62,0,0,1,12.07,5.45,19.5,19.5,0,0,1,4.91,13.56q0,8.12-4.91,13.3m4.7-32.09Q432.1,37.7,420.89,37.7a27.11,27.11,0,0,0-19.44,7.9q-8.23,7.9-8.22,21.14t8,21.36A25.57,25.57,0,0,0,420,96.22a23.73,23.73,0,0,0,10.63-2.62,22.74,22.74,0,0,0,8.7-7.53v9.29h12V38.55h-12Z" fill="#1f0047"/>
      <path id="013f0a2c-4e1d-48a9-b2dc-097810c1da50" data-name="&lt;Compound Path&gt;" d="M628.63,80.36a18.58,18.58,0,0,1-25.74,0q-5.07-5.18-5.07-13.4t5.07-13.4a18.57,18.57,0,0,1,25.74,0q5.07,5.18,5.07,13.4t-5.07,13.4M615.76,37.7q-12.82,0-21.36,8.49A28.16,28.16,0,0,0,585.86,67a28.16,28.16,0,0,0,8.54,20.77q8.54,8.49,21.36,8.49t21.36-8.49A28.17,28.17,0,0,0,645.66,67a28.17,28.17,0,0,0-8.54-20.77q-8.55-8.49-21.36-8.49" fill="#e2056f"/>
      <path id="72fdf508-028d-46d2-b668-873ab6e7392e" data-name="&lt;Compound Path&gt;" d="M693.6,80.42a17,17,0,0,1-12.28,5.13,15.86,15.86,0,0,1-12-5.18q-4.91-5.18-4.91-13.3a19.3,19.3,0,0,1,4.91-13.51,15.69,15.69,0,0,1,12.07-5.39,16.35,16.35,0,0,1,12.28,5.39,18.9,18.9,0,0,1,5.13,13.56q0,8.17-5.23,13.3m9.08-34.81a27,27,0,0,0-19.54-7.9q-11.43,0-18.48,10.79V38.55h-12v77.53h12V86.83q8.54,9.4,19.28,9.4T702.73,88q8.06-8.22,8.06-21.36t-8.12-21" fill="#e2056f"/>
      <path id="60913799-9016-4d01-9cc6-d9c9dc4302e3" data-name="&lt;Path&gt;" d="M558,37.7a22,22,0,0,0-11.16,3,19,19,0,0,0-7.74,8.22V16.23h-12V95.37h12V64.61q0-7.9,4.59-12a15.65,15.65,0,0,1,10.79-4.11q13,0,13,15.7V95.37h12V60.55q0-11.11-5.93-17T558,37.7" fill="#e2056f"/>
      <path id="737b25c7-2c63-4ad7-b813-28ccf97d116b" data-name="&lt;Path&gt;" d="M512.84,59.49q-5.82-5-17.3-7.8t-15-5.18A7.88,7.88,0,0,1,477,39.57a7.49,7.49,0,0,1,3.52-6.78,16.53,16.53,0,0,1,9-2.24,34.56,34.56,0,0,1,11.16,1.92,25.46,25.46,0,0,1,9,4.91l6.73-9.5a37.13,37.13,0,0,0-12.17-6.62A44.67,44.67,0,0,0,490,18.9q-11.11,0-18.64,5.61t-7.53,16q0,10.36,6.62,15.38a28.21,28.21,0,0,0,7.58,4.32,103.72,103.72,0,0,0,12.5,3.63q8.22,2,11.59,4.38a7.8,7.8,0,0,1,3.36,6.73A8.19,8.19,0,0,1,502,81.86q-3.58,2.62-9.66,2.62-12.17,0-23.49-9.83l-7.9,9.5A45.4,45.4,0,0,0,492,96.22q12,0,19.33-6.09a19.59,19.59,0,0,0,7.37-15.86q0-9.77-5.82-14.79" fill="#e2056f"/>
    </g>
    <path id="f64e8e0f-62cd-4638-a593-8d26602e0893" data-name="&lt;Path&gt;" d="M37.63,89.07c.93-.41,1.87-.79,2.81-1.15s2.15-.78,3.24-1.11c1.36-.41,2.73-.78,4.12-1.08a51.16,51.16,0,0,1,5.68-.88Q51.88,89.91,50,94.91c.06.64.08,1.29.1,1.94a41.16,41.16,0,0,1,16,0c0-.65,0-1.3.1-1.94q-1.93-5-3.54-10.05a51.16,51.16,0,0,1,5.68.88c1.39.3,2.76.67,4.12,1.08,1.09.33,2.17.71,3.24,1.11s1.89.74,2.81,1.15A50.36,50.36,0,0,1,95.95,102a58,58,0,1,0-75.81,0A50.36,50.36,0,0,1,37.63,89.07Z" fill="#a0dbe8"/>
    <path id="f730ca60-c4f8-41e4-b1da-d868f876b1a9" data-name="&lt;Path&gt;" d="M41.45,99.57a40.75,40.75,0,0,1,8.6-2.72c0-.65,0-1.3-.1-1.94q1.93-5,3.54-10.05a51.16,51.16,0,0,0-5.68.88c-1.39.3-2.76.67-4.12,1.08-1.09.33-2.17.71-3.24,1.11l4.23,1Z" fill="#525353"/>
    <path id="0d82712c-cfd9-4c36-8b6a-57f0cc165f02" data-name="&lt;Path&gt;" d="M31.48,105.83c.11-1.08.17-2.17.17-3.28a1.2,1.2,0,0,1,1.2-1.2h1.05l3.72-12.28A50.36,50.36,0,0,0,20.14,102a58.19,58.19,0,0,0,8.75,6.25Q30.13,107,31.48,105.83Z" fill="#525353"/>
    <path id="dd46b3ca-e43c-43b4-a47a-d829f3efec81" data-name="&lt;Path&gt;" d="M78.46,89.07l3.72,12.28h1.05a1.2,1.2,0,0,1,1.2,1.2c0,1.1.06,2.19.17,3.28Q86,107,87.2,108.23A58.18,58.18,0,0,0,95.95,102,50.36,50.36,0,0,0,78.46,89.07Z" fill="#525353"/>
    <path id="3f506823-dd2c-44d9-9b1c-aa74b92822ae" data-name="&lt;Path&gt;" d="M71.41,88.94l4.23-1c-1.07-.4-2.15-.78-3.24-1.11C71,86.4,69.67,86,68.28,85.73a51.16,51.16,0,0,0-5.68-.88q1.61,5.06,3.54,10.05c-.06.64-.08,1.29-.1,1.94a40.75,40.75,0,0,1,8.6,2.72Z" fill="#525353"/>
    <path id="b02066c6-7023-4cda-a4a2-0dbbbb95e26c" data-name="&lt;Path&gt;" d="M58,101.35h8.18a32.84,32.84,0,0,1-.19-4.5,41.16,41.16,0,0,0-16,0,32.84,32.84,0,0,1-.19,4.5Z"/>
    <path id="ea71e8fb-6cf5-4774-bb0f-3d07bd22965d" data-name="&lt;Path&gt;" d="M28.89,108.23c.67.39,1.36.78,2,1.14a33.18,33.18,0,0,0,.54-3.54Q30.13,107,28.89,108.23Z"/>
    <path id="8b9c8ee6-4446-4441-ac3c-368d256cd81b" data-name="&lt;Path&gt;" d="M40.91,101.35h9a32.84,32.84,0,0,0,.19-4.5,40.75,40.75,0,0,0-8.6,2.72Z"/>
    <path id="02e99e84-ce79-4ded-a78c-dcb52cc08ca0" data-name="&lt;Path&gt;" d="M84.61,105.83a33.19,33.19,0,0,0,.54,3.54c.69-.37,1.37-.75,2-1.14Q86,107,84.61,105.83Z"/>
    <path id="a018e52f-df2d-438d-9685-92e175610ba6" data-name="&lt;Path&gt;" d="M75.17,101.35l-.54-1.78A40.75,40.75,0,0,0,66,96.85a32.84,32.84,0,0,0,.19,4.5Z"/>
    <path id="c384c007-c693-420d-a010-9385e5f0d7ab" data-name="&lt;Path&gt;" d="M40.91,101.35l.54-1.78,3.22-10.62-4.23-1c-.95.36-1.89.74-2.81,1.15l-3.72,12.28h7Z" fill="#aa9678"/>
    <path id="2b94df57-5127-422e-99ef-ab77bdfce810" data-name="&lt;Path&gt;" d="M74.63,99.57l.54,1.78h7L78.46,89.07c-.93-.41-1.87-.79-2.81-1.15l-4.23,1Z" fill="#aa9678"/>
    <path id="8bc2ceb6-8440-4105-ad6c-df52ee374e26" data-name="&lt;Path&gt;" d="M34,103.83l.11-.08H34S34,103.8,34,103.83Z" fill="#c3b5a0"/>
    <path id="7abb0c90-f01f-42b4-adcf-54f9122dc095" data-name="&lt;Path&gt;" d="M58,103.75H34.14l-.11.08a35.62,35.62,0,0,1-.88,6.66A57.81,57.81,0,0,0,58,116.09Z" fill="#c3b5a0"/>
    <path id="32b147a1-30b9-4d3e-acf3-d6a3e85b868e" data-name="&lt;Path&gt;" d="M82.05,103.75h-.11l.11.08S82.05,103.78,82.05,103.75Z" fill="#aa9678"/>
    <path id="ae118243-7c0e-45f8-9cd0-fe360cc8772b" data-name="&lt;Path&gt;" d="M81.95,103.75H58v12.33a57.81,57.81,0,0,0,24.89-5.6,35.62,35.62,0,0,1-.88-6.66Z" fill="#aa9678"/>
    <rect id="417ba8e7-79cf-42e4-928d-a86ac6789244" data-name="&lt;Path&gt;" x="58.04" y="102.55" height="1.2" fill="#786453"/>
    <path id="25f7018a-a8fc-44fd-a40b-1b8c6e8621c2" data-name="&lt;Path&gt;" d="M84.61,105.83c-.11-1.08-.17-2.17-.17-3.28a1.2,1.2,0,0,0-1.2-1.2H32.85a1.2,1.2,0,0,0-1.2,1.2c0,1.1-.06,2.19-.17,3.28a33.18,33.18,0,0,1-.54,3.54c.73.39,1.47.76,2.22,1.12a35.62,35.62,0,0,0,.88-6.66s0-.05,0-.08h48s0,.05,0,.08a35.62,35.62,0,0,0,.88,6.66c.75-.36,1.49-.73,2.22-1.12A33.19,33.19,0,0,1,84.61,105.83Z" fill="#8b7460"/>
    <g id="6ce1022d-5feb-419e-9abb-9fdfac23c95b" data-name="&lt;Group&gt;">
      <path id="9c35bb1f-7184-4f86-be4e-4df886addc7e" data-name="&lt;Path&gt;" d="M77.58,49.22h0a47.16,47.16,0,0,1,2,6.37l0,.47c0,.23-.08.44-.12.63q.09-.43.18-1a46.51,46.51,0,0,0-2-6.46v0Z" fill="none"/>
      <path id="65176d44-4ff9-4cf8-b1f1-2907c2db56f6" data-name="&lt;Path&gt;" d="M94.48,62.35l-.1.05Z" fill="none"/>
      <path id="8aa1539e-b606-4e24-bb8c-d7fe41022141" data-name="&lt;Path&gt;" d="M94.85,62.06l-.13.12Z" fill="none"/>
      <path id="5921b48a-a901-475c-b974-2cc5d2faa448" data-name="&lt;Path&gt;" d="M75.83,47.7a35,35,0,0,0-4.21-3.06h0A35,35,0,0,1,75.83,47.7Z" fill="none"/>
      <path id="b7b799cd-100b-4a42-9715-b7e6912ea831" data-name="&lt;Path&gt;" d="M89.29,61.61l0,0Z" fill="none"/>
      <path id="602932cc-d8ef-4b04-a05a-6fc571f4783e" data-name="&lt;Path&gt;" d="M91.75,64.67l.12.15Z" fill="none"/>
      <path id="8ea9bdb1-9dc5-4a87-89b4-fcdd00863aea" data-name="&lt;Path&gt;" d="M79.38,56.79a4.6,4.6,0,0,1-.12.45C79.3,57.12,79.34,57,79.38,56.79Z" fill="none"/>
      <path id="03d41262-6358-4197-ad60-5f1a2ccf6f68" data-name="&lt;Path&gt;" d="M73.69,78a15.46,15.46,0,0,0-1.79,4.2A15.46,15.46,0,0,1,73.69,78l.86-1.43-.85,1.42Z" fill="none"/>
      <path id="19170f35-812d-462e-8a5b-7b16886c5c5b" data-name="&lt;Path&gt;" d="M77.58,49.21l.16-.31h0l-.14.3,1,.92Z" fill="none"/>
      <path id="9407bc3f-1f18-4bac-9273-1e79f787f02e" data-name="&lt;Path&gt;" d="M66.06,56.83h0Z" fill="none"/>
      <path id="53001334-5b8c-4f5e-a1fb-84935f592182" data-name="&lt;Path&gt;" d="M65.63,55.86h0Z" fill="none"/>
      <path id="77b93cd9-4109-4088-bd90-6ed53380e760" data-name="&lt;Path&gt;" d="M69.56,43.46l-.18-.1Z" fill="none"/>
      <path id="71cb7f95-f21f-4b9c-a7ac-8171a05331eb" data-name="&lt;Path&gt;" d="M69.85,43.62l-.25-.14Z" fill="none"/>
      <path id="7361bbf6-88b1-49a4-8bd8-2bcd8a26b37e" data-name="&lt;Path&gt;" d="M71.76,48.3c0,.14,0,.27,0,.41C71.76,48.57,71.76,48.44,71.76,48.3Z" fill="none"/>
      <path id="20477b0f-56ca-41c5-bbfe-9b782c48a879" data-name="&lt;Path&gt;" d="M65.87,56.33h0Z" fill="none"/>
      <path id="8aef9129-31f0-4284-b637-7b17c439d373" data-name="&lt;Path&gt;" d="M94.12,67.74l.22.28Z" fill="none"/>
      <path id="30712d88-43c0-4349-9477-7161035b92c0" data-name="&lt;Path&gt;" d="M71.75,50.13q0,.91-.06,1.83Q71.73,51,71.75,50.13Z" fill="none"/>
      <path id="6537269c-023b-4ba7-ac71-3b5cd8a4a0ae" data-name="&lt;Path&gt;" d="M66.21,57.36h0Z" fill="none"/>
      <path id="1aaea6c3-6b2f-411c-8aee-c4ca4396fb6f" data-name="&lt;Path&gt;" d="M71.52,44.57l-1.27-.72Z" fill="none"/>
      <path id="4ce39ec6-bed4-4a8e-bc86-d7111efe54b5" data-name="&lt;Path&gt;" d="M70.21,43.83l-.36-.2Z" fill="none"/>
      <path id="1b68c24a-6618-46ae-a641-207d993e8225" data-name="&lt;Path&gt;" d="M71.61,44.62h0l0,0Z" fill="none"/>
      <path id="5383e6ea-3ab5-4856-b12c-7e9d9b7dc402" data-name="&lt;Path&gt;" d="M96.06,58.72s0-.09,0-.14v0s0-.08,0-.13,0,.09,0,.14S96.06,58.67,96.06,58.72Z" fill="none"/>
      <path id="cfc69871-4c9b-4a57-acd8-3655bb5aaba5" data-name="&lt;Path&gt;" d="M86.56,58.36l.17.19h0l-.18-.19Z" fill="none"/>
      <path id="ff647cee-c776-4a1e-9fc1-6f5f306dace9" data-name="&lt;Path&gt;" d="M78.62,50.14c.77.71,1.53,1.43,2.27,2.17C80.15,51.57,79.39,50.84,78.62,50.14Z" fill="none"/>
      <path id="b0a9b776-df9f-40ae-a696-bf9f5f85b307" data-name="&lt;Path&gt;" d="M93.73,54.57a1.4,1.4,0,0,1,.42.07A1.39,1.39,0,0,0,93.73,54.57Z" fill="none"/>
      <path id="b49ac623-e658-4593-b6a6-31f29f51d277" data-name="&lt;Path&gt;" d="M91.5,57.45c0,.07,0,.14,0,.21S91.49,57.52,91.5,57.45Z" fill="none"/>
      <path id="4cdb059b-6f4f-4b72-ba79-ea7361359658" data-name="&lt;Path&gt;" d="M94.27,54.69a1.71,1.71,0,0,1,.28.15A1.68,1.68,0,0,0,94.27,54.69Z" fill="none"/>
      <path id="5ee705d0-39ad-4162-bfa0-4c8bbe389fd2" data-name="&lt;Path&gt;" d="M95.16,55.42l.09.13Z" fill="none"/>
      <path id="62e5a374-c3ab-4d95-b0dd-8d70ee10a854" data-name="&lt;Path&gt;" d="M96,57.74v0Z" fill="none"/>
      <path id="00e9a3cc-c4bd-45ae-8856-0a6123d2ca5c" data-name="&lt;Path&gt;" d="M96,59.43v0h0s0,.06,0,.09Z" fill="none"/>
      <path id="a609da93-d887-46a8-aacc-52341b2c5634" data-name="&lt;Path&gt;" d="M92.21,55.55l.09-.13Z" fill="none"/>
      <path id="cb1bdeab-6336-4254-89f9-97d207958a8e" data-name="&lt;Path&gt;" d="M93.32,54.64a1.4,1.4,0,0,1,.42-.07A1.39,1.39,0,0,0,93.32,54.64Z" fill="none"/>
      <path id="31795828-d41f-4d93-82d0-379ef044d4c2" data-name="&lt;Path&gt;" d="M83,54.46l-1.08-1.11Z" fill="none"/>
      <path id="30a186a7-587a-4e81-be4a-2be6576ac28d" data-name="&lt;Path&gt;" d="M93.73,41.88h0v5.38l-2.07,9.47,0,.07,0-.05h0l2.07-9.47v-5.4h0Z" fill="none"/>
      <path id="f2cc3b0c-8469-49bb-a1a0-28e1de5319e5" data-name="&lt;Path&gt;" d="M84.94,56.54l-.57-.62Z" fill="none"/>
      <path id="0fe46ea2-78ed-45ec-af59-4e471b42e854" data-name="&lt;Path&gt;" d="M95.8,56.74c0,.08.05.14.07.22h0c0-.08,0-.14-.07-.22h0Z" fill="none"/>
      <path id="f7ff343f-fae8-4aff-b26f-f5ae4affe632" data-name="&lt;Path&gt;" d="M91.4,58.55h0s0-.07,0-.11S91.4,58.51,91.4,58.55Z" fill="none"/>
      <path id="80853360-b6d3-4c38-a166-2487c6f1c8c1" data-name="&lt;Path&gt;" d="M92.91,54.83a1.71,1.71,0,0,1,.28-.15A1.68,1.68,0,0,0,92.91,54.83Z" fill="none"/>
      <path id="6b7e368a-2f79-4322-9b96-5ffbc8b7badf" data-name="&lt;Path&gt;" d="M92.49,55.19a2.35,2.35,0,0,1,.3-.28A2.32,2.32,0,0,0,92.49,55.19Z" fill="none"/>
      <path id="1e9a4af3-4d94-41d9-9bae-79013bd9d2e4" data-name="&lt;Path&gt;" d="M95.87,60.17h0a5.34,5.34,0,0,1-.19.59,5.29,5.29,0,0,0,.19-.59h0Z" fill="none"/>
      <path id="cd6d2c85-8aed-44a4-8a51-70a98d46dc95" data-name="&lt;Path&gt;" d="M25.13,56.78l.26-.4Z" fill="none"/>
      <path id="0253c494-c54f-4de2-b498-bf5de4e474fe" data-name="&lt;Path&gt;" d="M94.67,54.91a2.34,2.34,0,0,1,.3.28A2.34,2.34,0,0,0,94.67,54.91Z" fill="none"/>
      <path id="798fa4c3-1e50-4ecd-b1de-dd1184cae0ef" data-name="&lt;Path&gt;" d="M26.78,54.36l.12-.17Z" fill="none"/>
      <path id="620d29ec-e0f0-4476-a558-375ba6019835" data-name="&lt;Path&gt;" d="M66.34,58.52h0v0Z" fill="none"/>
      <path id="dcb537f7-029c-42ac-b3ca-8d0a38389076" data-name="&lt;Path&gt;" d="M22.61,61.4l-.3.64Z" fill="none"/>
      <path id="d3ef1b9c-3657-40d3-bb67-408b6bc74ed0" data-name="&lt;Path&gt;" d="M21.34,64.37l0,.1Z" fill="none"/>
      <polygon id="305c1808-c532-4e47-ada9-59aa615ccdcf" data-name="&lt;Path&gt;" points="95.17 43.25 95.17 43.25 95.17 43.25 95.17 43.25" fill="none"/>
      <polygon id="4fdcb7c8-a45f-4f61-9086-13ffa359e319" data-name="&lt;Path&gt;" points="32.81 47.85 32.81 47.85 32.81 47.85 32.81 47.85" fill="none"/>
      <path id="a6dce129-6f64-4139-9d5e-c8796da1625d" data-name="&lt;Path&gt;" d="M30.54,50l.35-.34Z" fill="none"/>
      <path id="306406cd-3a3c-40bd-ba22-1beddd46168c" data-name="&lt;Path&gt;" d="M28.49,52.2l.35-.41Z" fill="none"/>
      <polygon id="2ec727df-cf90-48f6-a483-ec7a18d0cd83" data-name="&lt;Path&gt;" points="95.8 56.74 93.73 47.28 95.8 56.74 95.8 56.74" fill="none"/>
      <path id="429cfe10-1d15-4f91-9894-3a922cb81a6f" data-name="&lt;Path&gt;" d="M59.76,63.91l-.11,0Z" fill="none"/>
      <path id="630c4620-53fc-4fef-8497-11ea019797ab" data-name="&lt;Path&gt;" d="M60.31,64l-.13,0Z" fill="none"/>
      <path id="c3a2ac13-e094-4c61-bd49-fa789f122665" data-name="&lt;Path&gt;" d="M23.89,58.9l-.38.72Z" fill="none"/>
      <path id="7f69a37d-794c-49f2-aaf8-88b11b13076b" data-name="&lt;Path&gt;" d="M58.21,63.33h0Z" fill="none"/>
      <path id="828022e8-35a6-4534-9248-bcdbc7aa00b2" data-name="&lt;Path&gt;" d="M59.22,63.77l-.08,0Z" fill="none"/>
      <path id="989dac7a-215c-4767-b196-8cf73eda8ddd" data-name="&lt;Path&gt;" d="M58.7,63.58l0,0Z" fill="none"/>
      <path id="fb99d336-8409-44b8-8e2d-a9a35ccfe3aa" data-name="&lt;Path&gt;" d="M55.81,60.63h0Z" fill="none"/>
      <path id="20f04b3d-b58d-4e34-9c66-2127da6aeeaf" data-name="&lt;Path&gt;" d="M55.56,57.31l0,.12Z" fill="none"/>
      <path id="4ddb31d2-f935-4b36-b2a1-a7d55a0014d5" data-name="&lt;Path&gt;" d="M56.12,55.87v0Z" fill="none"/>
      <path id="8af236db-6b03-4255-afd2-83f153f0df57" data-name="&lt;Path&gt;" d="M57.94,54h0Z" fill="none"/>
      <path id="721b8c68-5169-4e72-aefd-5f8989cfcc48" data-name="&lt;Path&gt;" d="M55.7,56.81l0,.08Z" fill="none"/>
      <path id="60dcc759-f4a9-41b3-839c-0fad3520e2ea" data-name="&lt;Path&gt;" d="M55.89,56.33l0,0Z" fill="none"/>
      <path id="ca0cbaaa-2d9b-4d80-ba84-9ce3d3ea3d64" data-name="&lt;Path&gt;" d="M62,53.2h0Z" fill="none"/>
      <path id="2b5d460f-df9e-483d-84e1-cdcd324c0a79" data-name="&lt;Path&gt;" d="M62.95,53.5h0Z" fill="none"/>
      <path id="20b1351c-4350-4a0b-b8ae-612975a14a77" data-name="&lt;Path&gt;" d="M58.85,53.48h0Z" fill="none"/>
      <path id="7abe048d-5b81-4456-8598-d0e46776332b" data-name="&lt;Path&gt;" d="M59.85,53.19h0Z" fill="none"/>
      <path id="203e201b-b94a-4e8d-968a-3aba68018478" data-name="&lt;Path&gt;" d="M66.3,57.91h0Z" fill="none"/>
      <path id="3db4e631-3b6c-4b2f-85b2-0aa937575368" data-name="&lt;Path&gt;" d="M60.91,41v0Z" fill="none"/>
      <path id="b23394fa-f75b-4dae-8577-7e76a38f2a41" data-name="&lt;Path&gt;" d="M60.91,40.58v0Z" fill="none"/>
      <path id="50b3043e-c0c5-422f-af9f-3e7256196e72" data-name="&lt;Path&gt;" d="M60.91,40.36v0Z" fill="none"/>
      <path id="15402de2-2bcd-450a-9711-2d6479287043" data-name="&lt;Path&gt;" d="M60.91,41.69v-.56C60.91,41.31,60.91,41.5,60.91,41.69Z" fill="none"/>
      <path id="d51bc9d8-203b-4245-9b5f-77e842028c07" data-name="&lt;Path&gt;" d="M95.34,61.47a3.22,3.22,0,0,1-.19.26A3.21,3.21,0,0,0,95.34,61.47Z" fill="none"/>
      <path id="50d19c18-bcb6-4106-9a4c-4693a66de476" data-name="&lt;Path&gt;" d="M55.46,57.86s0,.09,0,.13S55.45,57.9,55.46,57.86Z" fill="none"/>
      <path id="2a3cc618-f0a0-4eba-9621-f2083fa5212c" data-name="&lt;Path&gt;" d="M55.51,59.62v0Z" fill="none"/>
      <path id="ccf12d10-c9f7-4598-8d14-ae43a9f8d2d1" data-name="&lt;Path&gt;" d="M95.63,60.9c-.06.13-.12.26-.18.38Q95.54,61.1,95.63,60.9Z" fill="none"/>
      <path id="5eeafe48-b234-43f4-9558-ca4c127987c7" data-name="&lt;Path&gt;" d="M74.66,93.07c-.17-.2-.36-.42-.54-.66.19.24.37.46.54.66Z" fill="#525353"/>
      <path id="5a18cffa-7306-4e5c-8673-920974eb5e10" data-name="&lt;Path&gt;" d="M76,94.39v0a11.23,11.23,0,0,1-1.34-1.33h0A11.23,11.23,0,0,0,76,94.39Z" fill="#aa9678"/>
      <circle id="4305e59b-a9c8-4a60-a89b-1f562065bf45" data-name="&lt;Path&gt;" cx="93.73" cy="41.88" transform="translate(-3.04 7.61) rotate(-4.57)" fill="#fff"/>
      <path id="0343d4bb-5dae-4c0a-976f-fdb9e6ef3098" data-name="&lt;Path&gt;" d="M96.07,58.59v0h0Z" fill="#fff"/>
      <path id="6bf3827e-4d56-450f-8c0a-84aec54a80a6" data-name="&lt;Path&gt;" d="M96.69,45.13h0l0,0h0a19.79,19.79,0,0,0-1.49-1.84h0v0h0q-.35-.38-.7-.72l-.27-.24c-.15-.14-.3-.28-.45-.4h0v5.4l2.07,9.47h0c0,.07,0,.14.07.22l1.43,1.61v0h1.5c0-.14,0-.28,0-.42h0a40.62,40.62,0,0,0-2.06-12.78h0Z" fill="#bbbcbd"/>
      <path id="879cd2be-ac33-4a09-9597-054c975fc42b" data-name="&lt;Path&gt;" d="M96.07,58.57v0Z" fill="#bbbcbd"/>
      <path id="ba536237-d2a2-4c8a-b01c-cea648c8bfea" data-name="&lt;Path&gt;" d="M96,57.67v.07h0a6.78,6.78,0,0,1,0,.69s0,.08,0,.13v0s0,.09,0,.14c0,.23,0,.46,0,.67h0v.08a6.19,6.19,0,0,1-.13.69h0l1.42-1.59L95.87,57h0A6.19,6.19,0,0,1,96,57.67Z" fill="#676a6a"/>
      <path id="0fdc30cc-7dc8-47bf-a71c-81a1328e67ec" data-name="&lt;Compound Path&gt;" d="M96,59.48s0-.06,0-.09c0-.22,0-.44,0-.67,0-.05,0-.1,0-.15s0-.09,0-.14a6.78,6.78,0,0,0,0-.69v-.08a6.19,6.19,0,0,0-.13-.7c0-.08,0-.15-.07-.22a4.49,4.49,0,0,0-.55-1.19l-.09-.13L95,55.19a2.34,2.34,0,0,0-.3-.28l-.12-.08a1.71,1.71,0,0,0-.28-.15l-.12,0a1.24,1.24,0,0,0-.83,0l-.12,0a1.71,1.71,0,0,0-.28.15l-.12.08a2.35,2.35,0,0,0-.3.28l-.19.23-.09.13a4.49,4.49,0,0,0-.55,1.19l0,.05a6.31,6.31,0,0,0-.15.65c0,.07,0,.13,0,.21a6.32,6.32,0,0,0-.06.78s0,.07,0,.11h0c0,2.21,1,4,2.34,4a1.45,1.45,0,0,0,.64-.16l.1-.05a1.9,1.9,0,0,0,.25-.17l.13-.12a2.69,2.69,0,0,0,.29-.33,3.22,3.22,0,0,0,.19-.26l.11-.19c.06-.12.13-.25.18-.38l.06-.14a5.34,5.34,0,0,0,.19-.59A6.19,6.19,0,0,0,96,59.48ZM93.82,58c-.48,0-.88-.67-.88-1.5s.39-1.5.88-1.5.88.67.88,1.5S94.3,58,93.82,58Z"/>
      <ellipse id="b677add8-9c74-4c51-91f4-9b7940fb671c" data-name="&lt;Path&gt;" cx="93.82" cy="56.54" rx="0.88" ry="1.5" fill="#fff"/>
      <path id="1ae3380f-b491-4fc0-a313-726190a99fa7" data-name="&lt;Path&gt;" d="M91.67,56.74h0a4.49,4.49,0,0,1,.55-1.19l.09-.13.19-.23a2.32,2.32,0,0,1,.3-.28l.12-.08a1.68,1.68,0,0,1,.28-.15l.12,0a1.24,1.24,0,0,1,.83,0l.12,0a1.68,1.68,0,0,1,.28.15l.12.08a2.34,2.34,0,0,1,.3.28l.19.23.09.13a4.49,4.49,0,0,1,.55,1.19h0l-2.07-9.47-2.07,9.47Z" fill="#909393"/>
      <path id="09865c52-46a1-4662-a388-70e0c3fbba96" data-name="&lt;Compound Path&gt;" d="M66.34,58.48a5.57,5.57,0,0,0,0-.56h0a5.42,5.42,0,0,0-.09-.54h0q-.06-.26-.14-.51h0q-.08-.25-.19-.49h0q-.11-.24-.24-.47h0a5.51,5.51,0,0,0-2.68-2.36h0a5.4,5.4,0,0,0-1-.3h0a5.37,5.37,0,0,0-2.08,0h0a5.4,5.4,0,0,0-1,.29h0a5.45,5.45,0,0,0-.89.46h0a5.53,5.53,0,0,0-.79.62v0h0a5.52,5.52,0,0,0-1,1.27v0c-.08.14-.16.29-.22.45l0,0c-.06.14-.12.29-.17.43l0,.08c0,.14-.08.28-.11.42l0,.12c0,.14,0,.28-.07.43s0,.09,0,.13a5.42,5.42,0,0,0,.07,1.63v0a5.4,5.4,0,0,0,.3,1h0a5.51,5.51,0,0,0,2.38,2.69h0l.45.23,0,0,.44.17.08,0,.42.11.11,0,.42.07.13,0,.57,0a5.46,5.46,0,0,0,5.47-5.47s0,0,0,0h0v0Zm-5.46-.64a2.05,2.05,0,1,1,2.05-2.05A2.05,2.05,0,0,1,60.88,57.84Z"/>
      <circle id="46f2438b-6098-47bd-adbd-88d767e4347a" data-name="&lt;Path&gt;" cx="60.88" cy="55.79" r="2.05" fill="#fff"/>
      <path id="c95e59d7-77fe-432a-84d9-7de92188b65b" data-name="&lt;Path&gt;" d="M57.11,54.6h0v0h0l3.77-11.52V41.69c0-.19,0-.38,0-.56v-.8a32.14,32.14,0,0,0-6.46-.67c-.74,0-1.47,0-2.19.08l-.32,0a32.35,32.35,0,0,0-11,2.85,35,35,0,0,0-8.17,5.24h0c-.66.56-1.3,1.16-1.92,1.77l-.35.34q-.88.88-1.69,1.82l-.35.41c-.55.65-1.08,1.31-1.59,2l-.12.17c-.48.66-.94,1.33-1.39,2l-.26.4c-.36.57-.69,1.15-1,1.74H41.27Z" fill="#bbbcbd"/>
      <path id="cdf03b3d-c7a0-456f-b287-1bcd97591b68" data-name="&lt;Path&gt;" d="M71.6,53.3q.05-.67.09-1.35,0-.91.06-1.83c0-.47,0-.95,0-1.42,0-.14,0-.27,0-.41,0-1.22-.06-2.44-.13-3.66h0l0,0-.05,0-1.27-.72,0,0-.36-.2h0l-.25-.14,0,0-.18-.1Q68.2,42.75,67,42.23a42.8,42.8,0,0,0-6.06-1.9v2.73l3.73,11.54h0a5.51,5.51,0,0,1,1,1.25h0q.13.23.24.47h0q.11.24.19.49h0q.08.25.14.51h0a5.42,5.42,0,0,1,.09.54h0a5.57,5.57,0,0,1,0,.56h0v0h4.57a49.78,49.78,0,0,0,.66-5.07Z" fill="#e2dddb"/>
      <path id="020bc205-5d76-4bd5-80d4-937f30ccfe67" data-name="&lt;Path&gt;" d="M77.58,49.22v0Z" fill="#fbb040"/>
      <path id="e8851310-d2bc-46c2-9218-1a9857005626" data-name="&lt;Path&gt;" d="M66.38,75c1-1,2-2,3-3,.55-.58,1.1-1.15,1.62-1.71,3.82-4.15,6.63-8,8.31-13a4.6,4.6,0,0,0,.12-.45l0-.08c0-.19.08-.39.12-.63l0-.47a47.16,47.16,0,0,0-2-6.37v0l0,0-.43-.39q-.64-.59-1.31-1.16a35,35,0,0,0-4.21-3.06h0c.07,1.22.12,2.44.13,3.66,0,.14,0,.27,0,.41,0,.47,0,.95,0,1.42s0,1.22-.06,1.83q0,.67-.09,1.35v.14a49.78,49.78,0,0,1-.66,5.07l-.54,2.54C69.27,65.6,67,69.72,65.12,74c-.5,1.13-1,2.27-1.38,3.43l-.12.33c.58-.61,1.1-1.15,1.5-1.54Z" fill="#fbb040"/>
      <path id="7fc64715-d03a-4d56-b6e8-e3201638ac58" data-name="&lt;Path&gt;" d="M57.14,54.58h0a5.53,5.53,0,0,1,.79-.62h0a5.45,5.45,0,0,1,.89-.46h0a5.4,5.4,0,0,1,1-.29h0a5.37,5.37,0,0,1,2.08,0h0a5.4,5.4,0,0,1,1,.3h0a5.5,5.5,0,0,1,1.7,1.1h0L60.91,43.06Z" fill="#909393"/>
      <path id="7dba8fe1-dce5-4ee1-afdc-3d23dd09b845" data-name="&lt;Path&gt;" d="M55.81,60.63a5.4,5.4,0,0,1-.3-1v0A5.42,5.42,0,0,1,55.44,58s0-.09,0-.13,0-.29.07-.43l0-.12c0-.14.07-.28.11-.42l0-.08c0-.15.1-.29.17-.43l0,0c.07-.15.14-.3.22-.45v0a5.52,5.52,0,0,1,1-1.27h0L41.27,58.51h0l15.69,3.83a5.49,5.49,0,0,1-1.11-1.71Z" fill="#676a6a"/>
      <path id="73c48b8d-4177-44b4-8d90-2ef3c7de2646" data-name="&lt;Path&gt;" d="M91.46,57.66c0-.07,0-.14,0-.21a6.31,6.31,0,0,1,.15-.65l0-.07,2.07-9.47v-5.4a8.44,8.44,0,0,0-5.38-2.16,9.3,9.3,0,0,0-6.26,2.94,23.47,23.47,0,0,0-4.35,6.27l-.16.31,1,.92c.77.71,1.53,1.43,2.27,2.17l1,1L83,54.46l1.37,1.46.57.62q.82.9,1.62,1.82h0l.18.19H91.4s0-.07,0-.11A6.32,6.32,0,0,1,91.46,57.66Z" fill="#e2dddb"/>
      <path id="5d546a1e-5be5-4dfc-bb0e-8c58b6027007" data-name="&lt;Path&gt;" d="M77.58,49.24h0v0l0,0Z" fill="#e2dddb"/>
      <path id="7cacf438-45ef-4dd0-a4b4-663d4e9898c2" data-name="&lt;Path&gt;" d="M21.3,64.47l0-.1c.3-.79.63-1.56,1-2.33l.3-.64c.28-.6.58-1.2.89-1.78l.38-.72.23-.39c.33-.59.66-1.17,1-1.74l.26-.4c.44-.69.9-1.36,1.39-2l.12-.17c.51-.68,1-1.34,1.59-2l.35-.41q.82-.94,1.69-1.82l.35-.34c.62-.61,1.26-1.2,1.92-1.77h0a20.82,20.82,0,0,1,38.63-3.54l0,.05.14.26h0a35,35,0,0,1,4.21,3.06q.67.56,1.31,1.16l.43.39v0h0l.14-.3c1.33-8.4,5-14.45,9.4-14.45,3.29,0,6.21,3.43,8,8.72l0,.06h0a19.79,19.79,0,0,1,1.49,1.84h0l0,0h0l.07.23h0l-.07-.28a40.72,40.72,0,0,0-79.29,13,40.27,40.27,0,0,0,2,12.67v0q.39-1.8.93-3.57Q20.79,65.82,21.3,64.47Z" fill="#525353"/>
      <path id="80a220ef-7d75-459f-8c6a-480cc0e85d40" data-name="&lt;Path&gt;" d="M97.3,58.57l-1.42,1.59h0a5.29,5.29,0,0,1-.19.59l-.06.14q-.08.2-.18.38l-.11.19a3.21,3.21,0,0,1-.19.26,2.69,2.69,0,0,1-.29.33l-.13.12a1.9,1.9,0,0,1-.25.17l-.1.05a1.45,1.45,0,0,1-.64.16c-1.29,0-2.34-1.79-2.34-4H86.72q1.31,1.51,2.57,3.05l0,0q1.23,1.5,2.43,3l.12.15q1.14,1.45,2.25,2.92l.22.28q1.18,1.55,2.34,3.11l0,0a40.62,40.62,0,0,0,2.13-12.6H97.32Z" fill="#fff"/>
      <path id="c7e95a65-9a8b-4c8a-9e9a-ac5b92e4e76b" data-name="&lt;Path&gt;" d="M51.93,39.77l.32,0c.73,0,1.46-.08,2.19-.08a32.14,32.14,0,0,1,6.46.67v0A42.8,42.8,0,0,1,67,42.23q1.23.52,2.41,1.13l.18.1,0,0,.25.14h0l.36.2,0,0,1.27.72.05,0,0,0h0l-.14-.26,0-.05a21.19,21.19,0,0,0-7.79-8.48,20.76,20.76,0,0,0-30.85,12A35,35,0,0,1,41,42.61,32.35,32.35,0,0,1,51.93,39.77Z"/>
      <line id="e2560f9d-245b-4e15-8010-3c2e0325a01e" data-name="&lt;Path&gt;" x1="60.91" y1="41.37" x2="60.91" y2="41.61" fill="none" stroke="#000" stroke-linecap="round" stroke-linejoin="round" stroke-width="0"/>
      <path id="c26174fc-e82e-41fc-83db-0fca252b135c" data-name="&lt;Path&gt;" d="M82.09,42.64a9.3,9.3,0,0,1,6.26-2.94,8.44,8.44,0,0,1,5.38,2.16v0h0c.15.12.3.26.45.4l.27.24q.36.34.7.72h0v0h0l0-.06c-1.81-5.29-4.72-8.72-8-8.72-4.37,0-8.07,6-9.4,14.45h0A23.47,23.47,0,0,1,82.09,42.64Z"/>
      <path id="9fd9f65c-5d9c-4f9e-850b-d263a9c51772" data-name="&lt;Path&gt;" d="M43.54,96.09l1.13.4a40.69,40.69,0,0,0,28.65-.66l.74-.31L75.25,95l1-.5-.25,0h0a17,17,0,0,1-4.33,0c-8.38-1.2-10.23-5.24-10-9.45a20.91,20.91,0,0,1-1.84-1.19,54.33,54.33,0,0,1-10.27-9.65A54.33,54.33,0,0,0,62,80.92l.46.17c.35-1.2.76-2.34,1.12-3.35h0l.12-.33c.41-1.16.88-2.3,1.38-3.43,1.87-4.26,4.15-8.38,5.27-12.93l.54-2.54H66.34s0,0,0,0A5.46,5.46,0,0,1,60.88,64l-.57,0-.13,0-.42-.07-.11,0-.42-.11-.08,0-.44-.17,0,0-.45-.23h0a5.52,5.52,0,0,1-1.27-1L41.24,58.51H24.11l-.23.39-.38.72c-.31.59-.61,1.18-.89,1.78l-.3.64c-.35.77-.67,1.54-1,2.33l0,.1q-.51,1.35-.94,2.73-.54,1.77-.93,3.57A40.81,40.81,0,0,0,34.24,91l.61.41a40.4,40.4,0,0,0,8.69,4.64Z" fill="#fff"/>
      <path id="7194bed4-09a9-4545-8478-7f925d504194" data-name="&lt;Path&gt;" d="M71.65,83.45a11.69,11.69,0,0,0-.12,1.28,11.19,11.19,0,0,0,.14,2.14,11.36,11.36,0,0,0,.29,1.3,11.94,11.94,0,0,0,.65,1.74,13,13,0,0,0,.8,1.48l.28.43c.14.21.29.4.43.59s.37.46.54.66A11.23,11.23,0,0,0,76,94.39v0l0,.1h0l.25,0a25.64,25.64,0,0,0,5.45-1.37c.92-.33,1.84-.69,2.74-1.1l.82-.4c9.32-4.51,17.13-12.48,17.13-12.48A51.18,51.18,0,0,1,71.65,83.45Z" fill="#9f2255"/>
      <path id="16e1f295-cc54-4836-93d6-c9526825eed9" data-name="&lt;Path&gt;" d="M94.12,67.74Q93,66.27,91.87,64.82l-.12-.15q-1.2-1.53-2.43-3l0,0Q88,60.06,86.72,58.55l-.17-.19q-.8-.92-1.62-1.82l-.57-.62L83,54.46l-1.08-1.11-1-1c-.75-.74-1.5-1.46-2.27-2.17l-1-.92h0a46.51,46.51,0,0,1,2,6.46q.16.86.27,1.68c1,7.63-1.42,12.61-5.3,19.17L73.69,78a15.46,15.46,0,0,0-1.79,4.2,12.66,12.66,0,0,0-.25,1.29,51.18,51.18,0,0,0,30.78-4.3s-2.3-3.38-5.75-8Q95.52,69.57,94.34,68Z" fill="#e2056f"/>
      <path id="1b35104a-c173-4bca-836c-f97a74cb20bb" data-name="&lt;Path&gt;" d="M76,94.39a11.23,11.23,0,0,1-1.34-1.33c-.17-.2-.36-.42-.54-.66s-.28-.38-.43-.59l-.28-.43a13,13,0,0,1-.8-1.48A11.94,11.94,0,0,1,72,88.17a11.36,11.36,0,0,1-.29-1.3,11.19,11.19,0,0,1-.14-2.14,11.69,11.69,0,0,1,.12-1.28,12.66,12.66,0,0,1,.25-1.29A15.46,15.46,0,0,1,73.69,78h0l.85-1.42C78.43,70,80.87,65,79.85,57.36q-.11-.82-.27-1.68-.09.59-.18,1l0,.08c0,.17-.08.33-.12.45-1.69,5-4.49,8.87-8.31,13-.52.56-1.06,1.13-1.62,1.71-.93,1-1.91,2-3,3l-1.26,1.25c-.39.39-.91.92-1.5,1.54h0c-.36,1-.77,2.15-1.12,3.35L62,80.92a54.33,54.33,0,0,1-12.39-6.71,54.33,54.33,0,0,0,10.27,9.65,20.91,20.91,0,0,0,1.84,1.19c-.27,4.21,1.59,8.24,10,9.45a17,17,0,0,0,4.33,0l0-.1Z"/>
    </g>
  </g>
</svg>
